<?xml version="1.0" standalone="no"?>
<!DOCTYPE svg PUBLIC "-//W3C//DTD SVG 20010904//EN"
 "http://www.w3.org/TR/2001/REC-SVG-20010904/DTD/svg10.dtd">
<svg version="1.0" xmlns="http://www.w3.org/2000/svg"
 width="513.000000pt" height="684.000000pt" viewBox="0 0 513.000000 684.000000"
 preserveAspectRatio="xMidYMid meet">

<g transform="translate(0.000000,684.000000) scale(0.100000,-0.100000)"
fill="#000000" stroke="none">
<path d="M2655 5786 c-31 -19 -44 -22 -64 -14 -14 5 -62 12 -106 15 -67 4 -88
2 -127 -16 -42 -18 -48 -24 -48 -51 0 -21 -4 -29 -12 -24 -7 4 -8 3 -4 -4 8
-13 -7 -14 -44 -2 l-25 8 25 1 c49 2 -3 21 -55 20 -54 -1 -118 -16 -80 -18 13
-1 2 -11 -35 -30 -56 -30 -98 -66 -87 -77 3 -4 -5 -28 -18 -55 -14 -28 -25
-65 -24 -86 0 -32 2 -35 10 -18 8 17 9 16 6 -7 -2 -15 0 -25 4 -22 5 3 9 -1 9
-9 0 -19 49 -64 90 -80 87 -36 161 -31 322 24 69 23 103 29 172 29 79 0 111 9
85 26 -8 5 -8 9 2 14 12 8 3 12 -121 40 -63 14 -126 47 -155 81 -20 24 -20 24
0 8 68 -56 142 -72 287 -62 l103 6 -84 39 c-91 42 -108 63 -20 25 30 -13 83
-32 119 -41 36 -10 97 -33 137 -51 39 -18 74 -31 76 -28 8 7 117 -144 117
-163 0 -3 -16 8 -35 25 -20 17 -39 31 -43 31 -4 0 4 -9 18 -20 32 -25 24 -25
-27 0 -46 22 -208 60 -250 59 l-28 0 25 -12 c25 -11 42 -30 40 -44 -1 -4 7
-11 17 -15 25 -11 -41 -2 -157 21 -69 14 -84 19 -55 20 22 0 72 -6 110 -13 39
-8 72 -12 74 -11 2 2 -14 12 -35 22 -31 14 -64 18 -164 18 -115 -1 -132 -4
-215 -34 -108 -38 -220 -50 -291 -31 -64 18 -159 83 -174 119 -7 17 -9 44 -5
63 l6 33 -25 -28 c-14 -15 -29 -39 -32 -53 -6 -24 5 -96 21 -139 7 -20 7 -20
-8 0 -22 30 -39 102 -32 135 6 27 37 63 80 95 13 9 15 14 6 15 -7 0 -26 -11
-42 -24 -15 -13 -33 -26 -39 -28 -6 -2 -12 -13 -13 -25 0 -12 -4 -20 -8 -17
-10 6 -79 -25 -79 -36 0 -6 -13 -10 -29 -10 -33 0 -131 -39 -131 -52 0 -5 7
-5 18 0 9 5 31 12 47 16 l30 7 -39 -40 c-22 -22 -38 -43 -35 -45 3 -3 26 12
53 33 38 31 116 68 116 57 0 -2 -21 -17 -47 -34 -44 -28 -114 -92 -101 -92 2
0 31 9 64 21 100 36 145 49 140 40 -3 -4 -23 -13 -45 -21 -22 -7 -39 -16 -38
-19 3 -12 -63 -75 -70 -67 -4 4 7 21 25 37 39 35 24 37 -43 4 -63 -30 -89 -51
-81 -64 4 -5 1 -13 -5 -17 -8 -5 -10 -3 -4 7 6 11 4 10 -7 -1 -9 -8 -28 -37
-44 -65 l-28 -50 62 65 c34 36 59 56 55 46 -5 -14 -3 -17 6 -11 8 4 6 -4 -4
-19 -9 -14 -21 -24 -25 -21 -9 6 -99 -96 -145 -165 -18 -27 -39 -76 -47 -107
-12 -54 -13 -56 -19 -28 -5 24 -7 20 -8 -22 0 -28 4 -64 10 -80 11 -27 12 -24
33 57 22 83 46 138 91 210 12 19 34 57 49 83 15 27 30 46 33 43 3 -3 1 -11 -5
-18 -8 -10 -71 -160 -95 -228 -4 -11 -6 -9 -7 5 -1 18 -2 18 -15 -5 -8 -14
-28 -68 -45 -120 -30 -95 -38 -168 -20 -186 5 -5 11 -29 13 -54 3 -25 8 -72
12 -106 8 -67 -7 -134 -30 -134 -26 0 -26 -19 1 -59 26 -40 93 -78 80 -46 -11
30 4 14 17 -17 21 -50 28 -107 14 -114 -7 -4 -9 -4 -5 0 7 8 5 10 -63 88 -47
54 -103 93 -120 82 -18 -10 -39 -70 -39 -108 0 -19 7 -61 16 -93 9 -32 20 -78
25 -103 24 -129 36 -158 85 -214 27 -31 50 -53 52 -48 5 16 -17 62 -34 69 -19
7 -65 105 -71 151 -2 17 5 62 16 100 11 37 22 84 26 105 3 20 10 37 15 37 14
0 90 -92 90 -109 0 -23 -20 -41 -45 -41 -15 0 -17 -2 -6 -9 11 -7 10 -23 -7
-92 -22 -94 -17 -112 37 -122 39 -8 61 -33 61 -68 0 -17 4 -28 9 -25 5 3 11
-1 15 -9 3 -8 1 -17 -4 -20 -6 -4 -10 -35 -10 -70 0 -62 -1 -64 -27 -68 -27
-4 -27 -4 4 -6 29 -1 32 -5 44 -53 7 -29 12 -59 12 -65 0 -7 4 -13 8 -13 4 0
5 18 2 40 -4 26 -1 46 8 57 12 16 12 17 -2 5 -15 -11 -17 -6 -23 39 -4 28 -4
54 -1 57 8 8 25 -20 19 -30 -3 -4 -1 -8 3 -8 5 0 9 -8 10 -17 4 -47 22 -102
55 -170 6 -11 7 -26 4 -32 -4 -6 -1 -11 8 -11 8 0 18 -10 21 -22 4 -13 13 -36
20 -53 7 -16 16 -38 19 -48 3 -10 13 -17 23 -15 10 2 19 -4 19 -12 1 -8 2 -22
3 -30 1 -12 3 -12 10 -2 6 10 10 7 13 -12 3 -14 4 -26 2 -26 -13 0 -44 38 -44
52 0 10 -6 18 -14 18 -8 0 -17 7 -20 16 -3 9 -11 12 -18 8 -7 -4 -10 -4 -6 0
6 7 -25 46 -37 46 -10 0 6 -73 20 -86 8 -9 15 -21 15 -29 0 -7 3 -15 8 -17 4
-1 16 -21 28 -43 42 -81 59 -110 68 -116 10 -8 -1 -29 -14 -29 -5 0 -12 11
-16 25 -3 14 -10 23 -14 20 -5 -3 -14 11 -20 30 -6 19 -17 34 -23 32 -7 -1
-11 6 -9 17 2 12 -1 15 -8 11 -9 -5 -10 -1 -5 16 4 13 4 20 -1 16 -4 -4 -14 3
-22 15 -8 14 -11 16 -8 5 4 -12 -7 -32 -32 -60 -57 -62 -84 -105 -76 -118 4
-7 3 -9 -3 -6 -6 4 -51 -70 -103 -166 -52 -95 -108 -190 -124 -212 -17 -21
-25 -36 -18 -32 28 18 9 -13 -32 -51 -24 -22 -104 -106 -176 -187 -73 -80
-135 -144 -137 -141 -3 3 -16 1 -29 -4 -41 -16 -28 10 39 79 34 35 54 61 43
57 -10 -3 -84 -50 -165 -103 -135 -89 -177 -120 -363 -266 -36 -28 -120 -85
-186 -124 -65 -40 -159 -101 -208 -136 l-89 -63 -3 -742 -2 -742 869 0 869 1
-2 29 c-1 17 -8 36 -16 43 -10 9 -11 9 -6 -1 11 -18 -2 -50 -22 -54 -24 -5
-52 22 -52 50 0 15 -5 22 -12 19 -7 -2 -12 -10 -10 -17 3 -11 0 -11 -12 0 -12
9 -19 10 -30 1 -18 -15 -45 -4 -56 23 -7 17 -9 12 -9 -21 -1 -33 -5 -43 -17
-43 -10 0 -14 5 -10 16 3 8 2 12 -3 9 -5 -3 -12 -1 -15 4 -4 5 3 12 14 16 21
7 28 35 9 35 -5 0 -7 -6 -3 -12 5 -8 0 -7 -11 2 -10 8 -16 10 -13 5 4 -6 -2
-16 -13 -23 -16 -10 -21 -10 -25 3 -3 8 -10 12 -15 9 -5 -3 -9 2 -9 10 0 8 -4
18 -10 21 -6 4 -7 -1 -3 -11 5 -13 3 -15 -8 -9 -12 8 -12 6 0 -8 10 -13 10
-17 1 -17 -6 0 -14 9 -17 20 -3 11 -9 18 -13 15 -11 -7 -60 38 -60 54 0 6 -3
10 -7 10 -20 -3 -29 3 -30 21 -1 12 5 20 15 21 11 0 12 2 4 6 -7 3 -19 0 -26
-7 -9 -7 -16 -7 -20 -1 -4 5 -2 12 4 16 14 9 2 25 -18 25 -15 0 -15 -2 -2 -10
12 -8 11 -10 -7 -10 -12 0 -25 5 -28 10 -4 6 -11 8 -16 5 -5 -3 -6 1 -3 9 3 9
1 16 -5 16 -6 0 -8 6 -5 13 3 8 -1 19 -9 25 -12 10 -14 8 -13 -13 0 -14 -3
-25 -9 -25 -5 0 -8 14 -7 30 2 18 -3 36 -12 46 -9 8 -13 20 -10 26 4 6 3 13
-2 17 -16 11 -64 79 -64 90 0 6 -5 11 -10 11 -18 0 -35 49 -22 62 20 20 14 41
-9 35 -17 -5 -18 -3 -7 10 12 15 11 15 -9 4 -19 -10 -22 -9 -17 3 3 9 9 15 12
14 21 -2 32 4 32 17 0 18 -11 19 -30 2 -12 -10 -12 -9 -2 4 6 8 10 32 8 53 -1
21 2 43 8 50 6 6 12 25 12 41 2 51 8 84 15 79 4 -2 13 4 20 13 12 15 12 16 -5
10 -16 -6 -17 -5 -6 8 11 13 10 14 -5 9 -13 -5 -16 -4 -11 4 11 18 15 83 5 76
-5 -3 -6 -10 -3 -16 4 -6 2 -8 -3 -5 -14 9 -6 69 10 79 6 4 27 8 46 8 29 0 33
-3 28 -23 -3 -12 -9 -61 -12 -109 -7 -84 -6 -88 13 -88 11 0 22 7 26 15 3 8
11 14 17 13 6 -2 14 3 17 11 3 10 0 12 -11 8 -24 -9 -35 68 -12 93 9 10 15 27
14 37 -2 10 0 23 4 30 9 14 -26 36 -39 25 -4 -4 0 6 10 21 10 16 15 31 12 35
-3 3 -6 0 -6 -6 0 -7 -4 -12 -8 -12 -5 0 -8 9 -7 20 2 23 38 53 50 42 5 -4 5
-1 1 6 -6 10 -11 10 -22 1 -11 -9 -14 -8 -14 5 0 25 4 31 17 28 7 -2 13 2 13
8 0 5 -4 10 -10 10 -19 0 -10 28 21 61 25 27 32 30 40 18 6 -10 9 -5 7 17 -1
17 -8 31 -15 31 -8 0 -9 -4 -3 -12 6 -7 3 -11 -9 -11 -12 0 -17 6 -13 18 2 11
14 18 28 18 13 0 24 6 24 13 0 8 4 7 10 -3 8 -13 10 -13 10 2 0 9 -5 20 -10
23 -6 4 -8 10 -5 15 4 6 14 5 25 -2 14 -9 16 -17 9 -34 -6 -18 -5 -22 6 -17
15 5 19 15 16 46 -3 20 38 39 56 25 6 -5 14 -20 18 -35 3 -14 9 -23 12 -19 3
3 11 -3 17 -13 6 -10 38 -63 71 -117 33 -55 58 -103 57 -107 -1 -5 2 -6 7 -3
5 3 16 -13 25 -35 32 -80 32 -52 -4 250 -5 46 -12 86 -14 89 -3 2 -1 13 5 23
6 13 6 19 -1 19 -5 0 -10 4 -10 10 0 5 3 9 8 8 4 -1 16 3 28 9 18 11 25 8 52
-20 36 -38 58 -86 117 -261 115 -344 202 -645 214 -734 23 -180 32 -284 34
-387 l2 -110 54 -3 54 -3 -7 103 c-8 144 -10 257 -4 263 3 3 8 -59 12 -137 4
-79 9 -162 12 -185 l6 -43 500 0 500 0 -7 143 c-5 78 -7 281 -5 452 2 171 3
364 4 430 1 66 -3 203 -8 305 -4 102 -6 183 -3 180 14 -14 21 -277 21 -857 1
-353 4 -645 9 -649 4 -4 10 -4 14 -1 3 4 1 132 -6 285 -10 218 -10 323 0 492
11 198 9 335 -6 545 l-6 80 60 47 c34 26 61 44 61 40 0 -7 -23 -72 -48 -134
-17 -42 5 -26 73 52 33 39 62 65 64 58 2 -6 -2 -69 -9 -140 -10 -101 -11 -139
-1 -180 13 -60 36 -97 50 -82 11 10 79 264 110 404 26 120 41 235 41 310 0 32
4 61 8 64 8 5 146 -86 207 -136 25 -21 86 -63 200 -136 11 -7 28 -15 38 -18 9
-4 17 -10 17 -15 0 -5 11 -9 24 -9 14 0 31 -7 39 -15 8 -8 17 -12 20 -9 9 9
244 -139 342 -216 33 -26 85 -65 116 -86 31 -21 83 -61 115 -89 32 -27 96 -83
143 -124 50 -43 91 -87 98 -105 7 -17 12 -25 12 -18 1 6 5 12 10 12 19 0 20
-35 2 -89 -33 -98 -51 -159 -51 -175 0 -8 -5 -18 -12 -22 -6 -4 -8 -3 -4 4 3
6 2 13 -4 17 -5 3 -10 1 -10 -5 0 -7 -6 -26 -14 -43 -8 -18 -16 -39 -19 -47
-3 -10 -7 -5 -12 13 -5 17 -13 26 -20 23 -8 -3 -16 5 -19 20 -4 14 -10 22 -15
19 -10 -6 -16 23 -31 145 -5 47 -17 114 -25 150 l-15 65 6 -140 c3 -77 7 -160
9 -185 4 -34 2 -39 -4 -20 l-9 25 -2 -25 c-1 -14 -2 -31 -1 -37 1 -7 -4 -19
-11 -27 -11 -11 -15 -11 -25 3 -7 9 -13 11 -13 4 0 -14 -58 -6 -74 10 -11 11
-66 168 -66 188 0 18 -101 272 -106 266 -4 -4 50 -210 71 -272 10 -27 28 -99
41 -160 29 -140 39 -179 50 -196 6 -12 5 -12 -8 -1 -13 10 -16 9 -21 -7 -5
-21 -41 -26 -63 -9 -8 6 -10 0 -6 -17 5 -30 -10 -30 -40 -2 -10 10 -23 15 -29
12 -5 -4 -16 -2 -23 4 -8 7 -23 7 -44 1 -18 -5 -32 -6 -32 -3 0 3 -6 0 -13 -6
-8 -6 -16 -8 -19 -5 -3 3 -15 -6 -26 -20 -10 -14 -23 -22 -27 -18 -5 4 -5 -2
-1 -13 4 -11 4 -16 0 -13 -4 4 -16 2 -28 -4 -20 -11 -20 -10 -3 9 14 16 14 20
2 20 -8 0 -12 -4 -9 -8 7 -12 -60 -59 -70 -49 -5 5 -17 0 -29 -11 -12 -11 -28
-17 -37 -14 -27 11 -35 10 -33 -2 2 -7 -4 -13 -12 -13 -8 0 -15 -4 -15 -9 0
-6 -9 -8 -20 -6 -13 3 -25 -5 -37 -26 -17 -29 -18 -29 -26 -7 -8 22 -26 15
-30 -13 -6 -34 -37 -55 -37 -24 0 8 -4 15 -10 15 -5 0 -6 -7 -3 -17 5 -12 3
-14 -8 -7 -21 13 -58 12 -69 -1 -8 -9 -5 -12 11 -11 13 1 25 -7 29 -20 6 -15
4 -21 -6 -21 -8 0 -13 5 -11 11 3 6 -7 12 -21 13 -18 1 -21 -1 -11 -8 10 -6
10 -9 2 -9 -7 0 -13 -7 -13 -15 0 -8 5 -15 11 -15 6 0 3 -7 -5 -16 -17 -17
-40 -10 -30 9 4 7 3 9 -1 4 -5 -4 -19 3 -31 14 l-23 22 4 -24 c3 -13 10 -26
15 -27 6 -2 3 -10 -7 -18 -15 -11 100 -13 760 -14 l777 0 0 507 c0 448 -2 505
-15 487 -8 -10 -15 -32 -15 -49 0 -16 -23 -95 -51 -175 -28 -80 -57 -167 -65
-193 -8 -26 -19 -45 -24 -42 -6 4 -10 -1 -10 -9 0 -18 -16 -21 -25 -6 -9 15
-48 8 -58 -10 -4 -8 -5 -1 -2 15 3 17 9 54 12 82 3 29 9 50 14 48 4 -3 11 0
15 6 5 8 3 9 -6 4 -10 -6 -12 -2 -6 16 3 13 11 48 17 76 10 53 63 202 113 322
27 63 106 356 106 393 0 10 -6 18 -13 18 -7 0 -29 16 -48 36 -39 41 -90 78
-199 144 -41 26 -97 63 -124 83 -26 21 -74 50 -105 66 -31 15 -79 44 -106 63
-28 20 -72 47 -100 61 -27 14 -70 40 -95 58 -86 64 -113 80 -209 128 -53 27
-166 92 -251 144 -85 52 -188 115 -229 139 -103 61 -138 93 -171 158 -16 31
-65 117 -110 191 -44 74 -83 144 -86 156 -5 18 8 70 34 141 2 6 -1 12 -7 12
-6 0 -11 -7 -11 -16 0 -49 -97 -234 -113 -217 -4 3 -7 -1 -7 -10 0 -9 -4 -17
-9 -17 -5 0 -7 8 -4 19 7 29 -16 35 -38 10 -12 -14 -17 -30 -13 -43 4 -15 3
-17 -4 -7 -11 16 -32 6 -32 -15 0 -8 -4 -12 -10 -9 -5 3 -10 -1 -10 -10 0 -9
-4 -14 -8 -11 -8 5 -27 -11 -81 -71 -16 -17 -40 -34 -53 -38 -13 -4 -20 -4
-16 0 10 10 -10 35 -28 35 -7 0 -16 -9 -19 -20 -4 -11 -11 -18 -16 -15 -5 4
-9 -2 -9 -11 0 -10 -3 -14 -7 -11 -3 4 -16 -4 -28 -18 -13 -13 -26 -21 -29
-17 -4 3 -9 -4 -13 -16 -4 -19 -7 -20 -17 -8 -12 16 -62 3 -51 -13 3 -6 -3 -8
-14 -6 -13 2 -22 -3 -26 -14 -4 -13 -12 -17 -30 -13 -15 2 -25 0 -25 -7 0 -7
-5 -9 -12 -4 -7 4 -35 8 -61 9 -27 0 -52 5 -55 11 -4 5 -14 11 -22 11 -39 3
-98 3 -132 -1 -21 -2 -38 0 -38 5 0 5 -4 6 -10 3 -6 -3 -10 -2 -10 2 0 4 -30
19 -67 32 -71 25 -106 48 -97 62 3 5 -2 9 -10 9 -9 0 -16 7 -16 15 0 8 -4 15
-10 15 -5 0 -10 7 -10 15 0 8 -5 15 -12 15 -9 0 -9 3 -1 11 8 8 6 17 -11 33
-12 11 -22 30 -22 41 0 30 -14 65 -25 65 -6 0 -8 4 -5 9 4 5 0 12 -6 14 -8 3
-6 6 5 6 16 1 16 3 1 26 -10 15 -12 25 -5 25 6 0 11 8 11 19 0 13 -9 20 -28
23 -20 3 -29 0 -29 -10 0 -9 8 -11 24 -7 31 8 30 -13 -3 -25 -31 -12 -66 3
-58 25 4 9 1 21 -5 29 -6 7 -8 16 -4 20 4 4 0 4 -10 0 -16 -6 -16 -7 -1 -19
11 -8 14 -16 8 -26 -8 -13 -11 -13 -26 3 -11 10 -13 18 -6 18 6 0 8 3 5 6 -3
4 -2 15 3 24 7 14 5 19 -10 23 -12 3 -18 13 -17 25 1 15 5 18 13 11 8 -7 10
-2 6 16 -2 14 -8 25 -13 25 -5 0 -9 5 -9 11 0 5 5 7 12 3 7 -4 8 -3 4 4 -11
18 -18 53 -17 90 1 43 -19 90 -53 127 -15 16 -24 35 -22 42 3 8 -1 16 -9 19
-8 4 -12 10 -9 15 3 6 1 15 -4 22 -5 7 -9 26 -8 42 1 17 -2 35 -7 42 -5 6 -10
38 -13 70 -5 70 -19 102 -44 96 -22 -6 -70 40 -70 67 0 10 -5 22 -10 25 -6 4
-8 10 -5 15 3 5 0 31 -6 60 -12 57 -17 170 -7 164 3 -2 9 40 12 93 16 268 46
430 90 488 9 11 16 28 16 38 0 9 4 25 9 35 5 9 15 30 22 46 13 27 14 21 17
-80 1 -60 7 -113 12 -118 7 -7 10 -6 10 2 0 7 7 12 16 12 11 0 14 5 10 17 -4
10 -4 14 0 10 9 -9 44 22 44 40 0 7 5 13 11 13 5 0 7 5 4 10 -3 6 -1 10 5 10
6 0 8 5 5 10 -3 6 -2 10 4 10 6 0 8 7 4 16 -3 9 -1 19 6 23 6 4 14 21 17 37 3
16 8 31 12 34 8 6 7 0 22 110 11 78 23 120 36 120 3 0 2 -4 -1 -10 -3 -5 -1
-10 4 -10 6 0 11 7 11 15 0 9 6 12 16 8 10 -4 17 1 21 16 3 11 10 21 15 21 5
0 7 4 4 9 -7 11 62 53 75 46 5 -4 9 2 9 12 0 14 2 15 9 4 6 -9 11 -10 15 -2 4
6 11 9 16 6 5 -3 11 -2 14 3 3 5 22 7 42 6 20 -2 54 0 75 5 26 6 37 5 33 -1
-4 -6 2 -8 15 -3 18 5 21 2 21 -19 0 -53 -115 -145 -227 -181 -56 -18 -71 -30
-25 -19 41 10 173 74 210 103 19 14 50 49 70 77 22 30 43 49 51 46 8 -3 11 0
7 6 -4 6 7 9 29 7 20 -2 35 1 35 7 0 6 7 5 17 -3 14 -12 16 -12 9 0 -7 11 -1
13 27 9 20 -2 34 -1 31 3 -5 9 50 15 94 11 20 -2 30 -7 26 -14 -5 -7 -2 -8 5
-3 20 12 121 14 121 3 0 -6 6 -5 15 2 8 7 15 8 15 3 0 -5 14 -8 30 -5 17 2 58
-2 92 -9 49 -11 56 -15 37 -20 -18 -5 -14 -7 19 -8 23 -1 42 -5 42 -11 0 -5
14 -8 31 -6 17 1 49 -5 69 -15 34 -16 42 -28 68 -96 17 -43 38 -108 48 -145
10 -37 21 -65 26 -62 18 11 46 -18 57 -61 7 -29 17 -45 26 -45 9 0 18 -8 21
-17 3 -10 21 -53 41 -95 19 -43 37 -96 40 -118 3 -22 10 -43 16 -47 9 -6 5
102 -8 197 l-5 35 10 -32 c6 -18 16 -35 22 -39 8 -5 9 -2 4 12 -5 10 -13 37
-18 59 -5 21 -14 46 -21 53 -19 24 -34 79 -26 94 4 8 2 34 -5 59 -19 65 -28
118 -16 98 5 -9 12 -33 16 -53 3 -20 17 -69 31 -109 57 -161 63 -181 63 -209
0 -16 6 -41 14 -56 7 -15 17 -38 20 -52 7 -23 6 -24 -6 -5 -12 18 -14 13 -19
-45 l-6 -65 -1 70 c-3 109 -15 135 -25 50 -10 -97 -10 -103 -3 -165 3 -30 3
-46 -1 -35 -13 42 -52 -215 -51 -340 0 -66 3 -111 5 -100 3 11 29 39 59 62
l54 43 -4 -56 c-2 -30 -7 -58 -10 -61 -3 -4 -6 -38 -6 -77 0 -51 3 -67 11 -59
14 14 57 180 65 255 6 51 4 58 -11 58 -9 0 -48 -30 -86 -67 l-69 -66 0 31 c0
23 9 40 30 59 17 14 30 33 30 41 0 8 6 12 15 8 8 -3 14 0 12 7 -1 7 4 11 11 9
6 -1 12 5 12 14 0 8 4 13 9 9 5 -3 12 -1 16 5 4 6 -6 10 -24 10 -32 0 -45 25
-18 36 8 3 13 29 14 73 1 53 10 90 36 158 30 73 36 104 40 183 3 52 10 116 16
141 9 34 9 57 1 90 -23 88 -37 208 -26 219 7 7 7 16 -2 30 -6 11 -12 28 -12
37 0 21 -62 145 -91 182 -18 22 -19 26 -5 29 9 2 30 -6 47 -18 51 -37 42 -17
-16 34 -30 26 -55 54 -55 62 0 8 -6 11 -15 8 -21 -9 -19 6 7 33 l21 23 -64 0
c-35 0 -74 -3 -86 -6 -26 -7 -21 -24 6 -24 24 0 136 -56 153 -77 11 -14 11
-16 -2 -11 -91 35 -122 46 -106 35 72 -46 153 -161 144 -204 -3 -13 -10 -6
-22 22 -9 22 -34 57 -54 79 -43 44 -146 96 -192 96 -27 0 -30 3 -25 20 12 37
68 84 110 91 l40 6 -47 2 c-27 0 -48 -3 -48 -9 0 -13 -58 -42 -73 -37 -7 2 3
13 20 24 25 15 30 22 21 31 -17 17 -28 15 -28 -5 0 -33 -11 -5 -20 52 -5 32
-14 63 -19 68 -6 6 -6 -5 0 -29 4 -22 8 -59 8 -84 l-1 -45 -10 45 c-17 81 -31
131 -35 127 -2 -3 1 -24 7 -49 6 -24 10 -64 8 -88 l-3 -45 -13 45 c-21 74 -34
100 -45 93 -5 -3 -7 -2 -4 4 19 30 -133 216 -203 248 -24 11 -36 21 -30 25 8
5 6 9 -5 13 -9 4 -13 3 -10 -3 3 -6 0 -10 -7 -10 -7 0 12 -14 42 -31 56 -31
110 -76 110 -92 0 -5 -16 5 -35 22 -19 17 -50 38 -68 47 l-32 16 36 -30 c19
-17 49 -48 64 -68 l29 -38 -26 19 c-14 11 -23 24 -20 29 3 5 -2 7 -11 3 -9 -3
-16 -3 -14 2 1 4 -26 31 -60 60 -61 51 -121 80 -172 82 -22 1 -21 3 9 9 l35 7
-40 2 c-26 0 -54 -7 -80 -23z m-195 -13 c-8 -3 -32 -14 -52 -24 -37 -18 -38
-18 -26 1 12 19 33 27 73 28 13 0 15 -1 5 -5z m145 -29 c17 -8 22 -12 12 -9
-10 3 -42 5 -70 6 -41 1 -47 3 -27 9 37 12 52 11 85 -6z m-258 -41 c-8 -56
-18 -83 -28 -77 -15 9 -10 61 7 78 8 9 13 16 9 16 -3 0 -3 5 0 10 12 20 17 9
12 -27z m280 3 c2 -2 -40 -3 -94 -2 -80 1 -104 -2 -127 -17 -15 -10 -30 -16
-33 -13 -8 7 76 45 100 46 10 0 16 4 13 9 -5 8 132 -14 141 -23z m87 5 c22 -5
65 -14 95 -20 52 -11 146 -52 166 -73 6 -6 -10 0 -34 12 -50 25 -108 43 -196
60 -33 7 -71 19 -85 27 -14 8 -17 12 -6 8 10 -3 37 -9 60 -14z m-451 -48 c-7
-2 -19 -2 -25 0 -7 3 -2 5 12 5 14 0 19 -2 13 -5z m-16 -19 c-3 -3 -12 -4 -19
-1 -8 3 -5 6 6 6 11 1 17 -2 13 -5z m38 -14 c3 -6 -1 -7 -9 -4 -18 7 -21 14
-7 14 6 0 13 -4 16 -10z m-25 -56 l45 -14 -65 6 c-36 4 -78 12 -95 19 -29 12
-28 12 20 8 28 -3 70 -11 95 -19z m260 -53 c25 -6 56 -13 70 -15 14 -3 -2 -3
-36 -2 -34 2 -74 11 -90 20 -17 10 -21 15 -9 12 11 -3 40 -10 65 -15z m178
-28 c-10 -2 -28 -2 -40 0 -13 2 -5 4 17 4 22 1 32 -1 23 -4z m-898 -97 c0 -2
-9 -6 -20 -9 -11 -3 -18 -1 -14 4 5 9 34 13 34 5z m780 -7 c-25 -4 -56 -7 -70
-7 -23 0 -22 1 5 8 17 4 48 8 70 8 l40 -1 -45 -8z m128 -106 c-10 -2 -26 -2
-35 0 -10 3 -2 5 17 5 19 0 27 -2 18 -5z m732 -75 c23 -18 51 -49 63 -68 18
-31 16 -30 -22 12 -23 26 -57 53 -76 59 -19 7 -32 16 -29 21 9 14 21 9 64 -24z
m146 -311 c3 -51 1 -112 -4 -137 -9 -41 -10 -37 -10 45 0 50 -3 119 -7 155 -5
51 -4 61 5 47 7 -10 14 -60 16 -110z m40 -14 c5 -60 1 -80 -29 -168 l-34 -100
-6 50 c-4 28 -13 84 -21 125 -7 41 -12 77 -9 80 9 10 22 -27 28 -84 12 -102
20 -108 40 -33 17 64 17 165 1 237 -5 19 -2 17 9 -7 8 -18 17 -63 21 -100z
m-199 -35 c-3 -8 -6 -5 -6 6 -1 11 2 17 5 13 3 -3 4 -12 1 -19z m23 -51 c0 -5
-4 -5 -10 -2 -5 3 -10 14 -10 23 0 15 2 15 10 2 5 -8 10 -19 10 -23z m-1970
-207 c-9 -22 -10 -20 -5 15 2 22 6 51 7 65 1 14 3 7 5 -15 2 -23 -1 -52 -7
-65z m2146 8 c1 -40 -1 -67 -4 -59 -4 11 -6 11 -14 0 -7 -10 -8 -6 -4 13 8 34
-11 47 -20 13 -7 -28 -19 -33 -28 -10 -3 8 0 14 6 12 6 -1 23 21 37 50 14 28
26 52 26 52 1 1 1 -32 1 -71z m-2275 -608 c-8 -21 -10 -14 -10 36 -1 33 2 64
7 68 11 12 14 -77 3 -104z m174 -175 c0 -58 0 -105 -1 -105 -10 0 -64 89 -64
105 0 18 52 105 63 105 1 0 2 -47 2 -105z m1828 -1049 c85 -143 118 -219 163
-387 72 -266 93 -369 76 -369 -13 0 -22 25 -22 58 0 29 -47 231 -87 377 -25
90 -116 286 -171 367 -40 60 -44 68 -35 68 5 0 39 -51 76 -114z m-1829 -13
c-49 -131 -71 -212 -113 -423 -11 -52 -20 -86 -20 -75 -1 25 46 294 55 320 5
11 4 16 -3 12 -5 -3 -18 -34 -28 -69 -41 -145 -82 -251 -123 -318 l-21 -34 6
39 c11 75 81 271 122 346 23 41 64 118 91 172 28 53 52 97 55 97 2 0 -7 -30
-21 -67z m1646 -65 c-30 -210 -94 -408 -130 -400 -6 1 -8 -2 -5 -9 8 -12 -42
-69 -61 -69 -7 0 -16 -5 -20 -12 -5 -7 -3 -8 6 -3 8 5 11 4 6 -3 -4 -6 -12 -9
-19 -6 -7 2 -20 -9 -30 -26 -10 -16 -22 -30 -28 -30 -5 0 -14 -11 -19 -25 -5
-14 -16 -25 -24 -25 -8 0 -17 -8 -20 -18 -7 -21 -181 -192 -196 -192 -13 0 10
57 77 194 30 60 51 111 47 115 -4 3 -9 1 -11 -6 -2 -6 -25 -29 -51 -50 -25
-21 -42 -31 -37 -23 7 12 6 13 -6 3 -16 -13 -76 -24 -123 -23 -15 0 -35 -5
-42 -11 -8 -6 -14 -7 -14 -2 0 10 -7 12 -57 16 -17 1 -29 6 -26 11 3 4 -4 5
-15 2 -12 -4 -23 -2 -28 5 -5 8 -3 10 7 4 8 -5 11 -4 6 0 -9 11 -57 13 -51 3
3 -4 -2 -5 -10 -2 -9 3 -16 11 -16 17 0 6 -3 8 -6 4 -16 -16 -139 151 -133
180 1 4 -1 16 -6 26 -11 25 -6 26 50 11 92 -25 244 -5 344 45 20 10 63 24 96
31 73 15 159 47 200 75 84 57 220 164 293 232 32 28 58 50 60 48 2 -2 -2 -41
-8 -87z m-1374 -218 c1 -6 2 -11 4 -12 3 -5 7 -48 3 -48 -2 0 -12 14 -22 31
-20 33 -18 70 3 49 6 -6 12 -15 12 -20z m1809 -43 c50 -32 149 -93 220 -136
72 -43 191 -115 265 -161 147 -90 218 -133 265 -160 124 -70 413 -249 523
-322 148 -99 215 -155 205 -171 -3 -6 -1 -7 6 -3 39 25 7 -122 -71 -329 -28
-71 -60 -158 -71 -192 -12 -35 -26 -63 -30 -63 -4 0 -22 16 -40 36 -40 46
-232 207 -357 300 -313 232 -343 252 -562 361 -105 53 -244 142 -268 173 -3 3
-30 23 -60 43 -30 20 -66 46 -80 58 l-25 20 30 -15 c17 -9 71 -45 120 -81 172
-125 250 -173 338 -208 48 -20 113 -53 145 -74 205 -138 261 -178 379 -268
113 -87 286 -230 345 -287 19 -19 43 -25 33 -8 -3 5 5 38 19 72 16 40 22 66
16 72 -5 5 -13 6 -17 2 -4 -4 -2 -11 5 -15 10 -6 7 -12 -12 -24 -17 -12 -23
-23 -19 -35 3 -9 3 -14 -2 -10 -4 4 -16 3 -27 -3 -18 -10 -18 -9 -8 11 7 13 8
20 2 16 -6 -3 -13 3 -17 14 -4 11 -10 18 -15 15 -5 -3 -11 1 -13 7 -3 7 -6 5
-6 -6 -1 -19 -1 -19 -22 0 -14 12 -19 26 -16 44 5 23 4 24 -9 5 -8 -10 -14
-13 -14 -7 0 7 -5 12 -11 12 -5 0 -7 -6 -3 -12 4 -7 -5 -2 -20 12 -14 13 -25
29 -22 36 3 7 -14 19 -40 29 -25 9 -43 20 -40 23 3 3 -2 11 -12 19 -9 8 -11
12 -5 8 9 -4 11 -1 6 10 -4 12 -8 13 -13 5 -10 -17 -33 -2 -26 17 5 13 -15 44
-29 43 -19 -1 -25 1 -24 8 1 4 1 16 0 27 -2 20 -2 20 -16 1 -9 -11 -15 -14
-15 -7 0 8 -7 10 -20 6 -15 -5 -18 -2 -15 13 2 14 -2 19 -18 18 -12 -1 -28 2
-34 7 -7 5 -13 6 -13 2 0 -5 -8 2 -19 13 -10 12 -22 18 -26 14 -5 -4 -5 -1 -1
6 4 7 1 12 -8 12 -8 0 -24 14 -36 30 -13 19 -30 30 -45 30 -13 0 -31 7 -39 16
-9 8 -21 12 -27 8 -7 -4 -10 -3 -7 2 3 5 -4 18 -15 28 -20 19 -20 19 -13 0 5
-14 -1 -11 -26 11 -75 69 -98 95 -98 114 0 11 -4 23 -10 26 -5 3 -10 15 -10
26 0 11 -10 36 -23 57 -36 57 -91 163 -110 209 -9 23 -43 78 -74 122 -32 43
-84 114 -116 158 -63 87 -164 201 -147 166 5 -12 49 -83 98 -157 151 -235 170
-268 144 -252 -6 4 -18 -5 -27 -21 -9 -15 -14 -21 -12 -13 2 8 7 26 11 40 l7
25 -16 -25 c-14 -22 -15 -22 -10 -4 4 14 0 24 -10 28 -8 3 -15 4 -15 2 0 -3
-3 -12 -7 -22 -4 -12 -3 -15 6 -10 10 6 10 4 0 -12 -13 -21 -34 -20 -23 1 3 7
-1 4 -9 -5 -32 -40 -48 -15 -40 63 8 86 7 90 -14 82 -13 -5 -15 -2 -10 16 4
16 2 21 -7 18 -9 -4 -18 15 -29 56 -27 106 -65 236 -73 248 -10 16 -1 12 101
-54z m40 -466 c-6 -5 -25 10 -25 20 0 5 6 4 14 -3 8 -7 12 -15 11 -17z m-5
-56 c-13 -16 3 -30 22 -19 6 4 8 3 5 -3 -7 -11 16 -37 24 -28 3 2 10 -10 17
-27 11 -30 11 -30 -8 -13 -11 10 -20 15 -20 10 0 -4 -7 -2 -15 5 -8 7 -12 16
-9 21 3 5 -7 20 -23 34 -23 20 -25 26 -13 34 19 13 34 3 20 -14z m-14 -40 c17
-16 14 -18 -10 -9 -9 3 -16 10 -16 15 0 13 9 11 26 -6z m-2767 -347 c5 9 11 4
20 -14 8 -19 9 -42 2 -83 -6 -31 -12 -112 -16 -181 -3 -69 -8 -149 -11 -178
-4 -36 -2 -57 7 -70 7 -9 10 -14 5 -10 -13 11 -49 -29 -43 -46 3 -9 2 -18 -3
-21 -6 -4 -10 -1 -10 6 0 8 -3 10 -10 3 -11 -11 -121 -264 -140 -321 -17 -54
-30 -46 -25 15 2 26 6 90 10 142 7 113 31 289 50 380 26 123 47 205 56 222 5
10 9 25 9 33 0 9 7 27 16 41 9 13 14 27 11 31 -4 3 5 14 18 25 15 11 22 25 18
31 -4 7 1 6 11 -2 13 -11 19 -12 25 -3z m452 -35 c13 -16 12 -17 -3 -4 -10 7
-18 15 -18 17 0 8 8 3 21 -13z m567 -80 c-14 -18 -19 -12 -11 16 4 16 8 19 14
10 4 -7 3 -19 -3 -26z m17 -33 c-3 -5 -1 -11 5 -15 6 -4 8 -10 6 -14 -3 -4 1
-34 9 -67 17 -71 19 -97 5 -89 -5 3 -10 17 -10 31 0 14 -4 33 -9 42 -15 29
-25 136 -12 128 6 -4 9 -11 6 -16z m2619 -76 c3 -8 2 -12 -4 -9 -6 3 -10 10
-10 16 0 14 7 11 14 -7z m-2547 -176 c-3 -8 -6 -5 -6 6 -1 11 2 17 5 13 3 -3
4 -12 1 -19z m10 -80 c-3 -7 -5 -2 -5 12 0 14 2 19 5 13 2 -7 2 -19 0 -25z
m-1579 -29 c-3 -20 0 -29 9 -29 13 0 16 8 16 43 0 16 11 15 12 -1 1 -4 6 -17
13 -30 14 -24 7 -138 -9 -148 -5 -3 -7 -9 -4 -14 8 -13 -16 -224 -27 -238 -6
-7 -8 -15 -5 -19 3 -3 -1 -19 -9 -35 -8 -16 -12 -32 -10 -37 3 -5 -1 -14 -9
-21 -13 -11 -15 -7 -15 24 0 20 -4 36 -10 36 -6 0 -10 67 -10 183 1 144 4 186
15 201 8 11 15 30 15 43 0 13 5 23 10 23 6 0 10 9 10 21 0 11 -4 18 -8 15 -5
-3 -9 1 -9 8 0 8 7 12 15 9 9 -4 12 -16 10 -34z m1589 -56 c-3 -10 -5 -4 -5
12 0 17 2 24 5 18 2 -7 2 -21 0 -30z m-1081 -8 c-1 -8 -5 -17 -8 -21 -5 -4 -4
16 1 34 3 9 9 -1 7 -13z m-52 -21 c3 -8 2 -12 -4 -9 -6 3 -10 10 -10 16 0 14
7 11 14 -7z m1143 -26 c-3 -7 -5 -2 -5 12 0 14 2 19 5 13 2 -7 2 -19 0 -25z
m-1064 5 c-3 -7 -6 -13 -8 -13 -2 0 -5 6 -8 13 -3 8 1 14 8 14 7 0 11 -6 8
-14z m44 -54 c2 -11 -1 -18 -6 -15 -5 3 -7 -2 -4 -13 3 -10 -1 -22 -8 -26 -8
-6 -10 -4 -4 5 6 10 4 12 -8 7 -9 -3 -19 -2 -23 4 -4 7 -10 7 -18 0 -8 -6 -17
-6 -26 0 -13 9 -13 9 0 7 9 -2 15 2 15 7 0 6 -4 9 -10 7 -5 -2 -6 0 -2 5 5 4
14 8 20 8 7 1 11 6 10 12 -1 6 6 9 16 6 10 -3 22 0 26 7 9 14 18 6 22 -21z
m-196 -32 c-10 -9 -11 -8 -5 6 3 10 9 15 12 12 3 -3 0 -11 -7 -18z m59 17 c0
-8 -19 -13 -24 -6 -3 5 1 9 9 9 8 0 15 -2 15 -3z m-28 -56 c-7 -7 -12 -20 -12
-30 0 -22 -16 -24 -24 -3 -3 8 -1 15 5 15 6 0 7 5 3 12 -4 6 -3 8 4 4 6 -3 13
-2 17 4 3 5 9 10 13 10 3 0 1 -5 -6 -12z m95 -45 c-4 -3 -1 -13 6 -22 10 -14
10 -14 -4 -4 -12 10 -18 10 -29 0 -8 -6 -6 -2 4 11 11 12 21 22 24 22 3 0 2
-3 -1 -7z m1130 -145 c-3 -7 -5 -2 -5 12 0 14 2 19 5 13 2 -7 2 -19 0 -25z
m10 -95 c-2 -16 -4 -3 -4 27 0 30 2 43 4 28 2 -16 2 -40 0 -55z m2500 25 c-3
-8 -6 -5 -6 6 -1 11 2 17 5 13 3 -3 4 -12 1 -19z m-4200 -50 c-3 -7 -5 -2 -5
12 0 14 2 19 5 13 2 -7 2 -19 0 -25z m4600 10 c-3 -8 -6 -5 -6 6 -1 11 2 17 5
13 3 -3 4 -12 1 -19z m-2890 -75 c-3 -10 -5 -2 -5 17 0 19 2 27 5 18 2 -10 2
-26 0 -35z m-30 -55 c-3 -8 -6 -5 -6 6 -1 11 2 17 5 13 3 -3 4 -12 1 -19z m10
-240 c-2 -13 -4 -5 -4 17 -1 22 1 32 4 23 2 -10 2 -28 0 -40z m1705 -10 c-9
-9 -12 -7 -12 12 0 19 3 21 12 12 9 -9 9 -15 0 -24z m-2352 -43 c7 -9 8 -15 2
-15 -5 0 -12 7 -16 15 -3 8 -4 15 -2 15 2 0 9 -7 16 -15z"/>
<path d="M2150 2300 c0 -5 5 -10 10 -10 6 0 10 5 10 10 0 6 -4 10 -10 10 -5 0
-10 -4 -10 -10z"/>
<path d="M3005 2271 c-3 -5 -2 -12 3 -15 5 -3 9 1 9 9 0 17 -3 19 -12 6z"/>
<path d="M3655 2090 c-3 -6 1 -7 9 -4 18 7 21 14 7 14 -6 0 -13 -4 -16 -10z"/>
<path d="M3665 2050 c3 -5 8 -10 11 -10 2 0 4 5 4 10 0 6 -5 10 -11 10 -5 0
-7 -4 -4 -10z"/>
<path d="M4340 1441 c0 -5 7 -12 16 -15 21 -8 24 -8 24 5 0 5 -4 7 -10 4 -5
-3 -10 -1 -10 4 0 6 -4 11 -10 11 -5 0 -10 -4 -10 -9z"/>
<path d="M4530 1362 c0 -5 6 -17 14 -27 13 -18 14 -18 9 8 -5 24 -23 39 -23
19z"/>
<path d="M5002 1228 c-11 -29 -23 -61 -27 -70 -4 -10 -3 -18 3 -18 11 0 25 34
41 94 15 58 7 54 -17 -6z"/>
<path d="M4725 1130 c-3 -5 -1 -10 4 -10 6 0 11 5 11 10 0 6 -2 10 -4 10 -3 0
-8 -4 -11 -10z"/>
<path d="M4953 1108 c-2 -22 13 -24 21 -2 8 21 8 21 -7 21 -7 0 -14 -9 -14
-19z"/>
<path d="M351 654 c0 -11 3 -14 6 -6 3 7 2 16 -1 19 -3 4 -6 -2 -5 -13z"/>
<path d="M910 835 c0 -10 29 -24 34 -17 3 6 -3 12 -14 15 -11 3 -20 4 -20 2z"/>
<path d="M2820 5790 c28 -24 26 -24 34 -4 4 12 2 15 -9 10 -8 -3 -15 -1 -15 4
0 6 -7 10 -17 10 -13 0 -11 -4 7 -20z"/>
<path d="M3000 5730 c30 -17 59 -35 64 -40 6 -6 14 -10 20 -10 16 0 -25 38
-57 53 -64 29 -81 27 -27 -3z"/>
<path d="M2877 5739 c7 -7 15 -10 18 -7 3 3 -2 9 -12 12 -14 6 -15 5 -6 -5z"/>
<path d="M2044 5684 c-19 -15 -19 -15 1 -6 11 5 27 12 35 15 13 5 13 6 -1 6
-8 1 -24 -6 -35 -15z"/>
<path d="M3164 5615 c25 -31 46 -62 46 -68 0 -5 3 -7 6 -4 9 8 -55 102 -80
117 -10 6 2 -14 28 -45z"/>
<path d="M1956 5585 c-3 -9 -6 -24 -5 -33 0 -9 5 -4 10 12 9 32 6 48 -5 21z"/>
<path d="M2708 5413 c12 -2 30 -2 40 0 9 3 -1 5 -23 4 -22 0 -30 -2 -17 -4z"/>
<path d="M2998 5405 c6 -11 21 -29 34 -40 22 -19 22 -19 -2 10 -40 48 -43 51
-32 30z"/>
<path d="M2710 5391 c0 -5 21 -13 48 -16 84 -11 212 -36 237 -45 14 -5 25 -7
25 -5 0 4 -88 46 -125 60 -33 11 -185 16 -185 6z"/>
<path d="M1395 4879 c-4 -6 -5 -12 -2 -15 2 -3 7 2 10 11 7 17 1 20 -8 4z"/>
<path d="M1880 4458 c-82 -42 -86 -45 -118 -108 -21 -43 -31 -73 -27 -88 4
-15 2 -21 -5 -17 -5 3 -10 1 -10 -4 0 -15 10 -13 45 9 17 11 44 27 60 36 17 9
32 20 35 24 11 15 110 43 169 47 93 7 191 -23 191 -59 0 -4 -35 -8 -78 -8
-104 0 -187 -16 -245 -48 -62 -33 -81 -55 -42 -48 l28 5 -24 -22 c-13 -12 -27
-22 -31 -22 -5 0 -8 -4 -7 -9 0 -5 -5 -13 -13 -17 -19 -13 14 -12 47 1 17 7
24 7 20 0 -3 -6 1 -10 9 -10 8 0 20 -8 25 -17 6 -10 11 -13 11 -6 0 7 7 10 15
6 10 -3 15 -1 13 8 -2 7 5 15 16 17 10 2 16 0 13 -5 -3 -5 10 -8 29 -8 24 1
34 -3 35 -14 0 -11 2 -12 6 -3 2 6 22 12 42 12 40 0 73 26 86 68 6 22 7 22 36
5 30 -18 40 -58 17 -65 -7 -3 9 -8 37 -11 32 -5 52 -3 59 4 8 9 7 10 -2 5 -21
-12 -72 3 -65 20 4 11 9 12 19 3 11 -9 14 -8 14 1 0 10 4 10 18 0 9 -7 -5 8
-33 33 -27 26 -56 46 -63 47 -7 0 -11 4 -7 10 3 5 28 -4 56 -20 27 -17 53 -30
58 -30 14 0 51 -41 51 -56 0 -9 -22 -36 -50 -62 -50 -47 -65 -71 -32 -53 9 5
43 18 75 29 56 20 57 20 57 1 0 -10 5 -19 10 -19 31 0 45 154 19 206 -9 16
-20 38 -26 49 -6 11 -19 41 -27 66 -12 34 -25 50 -49 62 -57 27 -209 57 -289
57 -71 0 -78 2 -78 20 0 11 -3 20 -8 20 -4 0 -46 -19 -92 -42z m70 -218 c0 -5
-5 -10 -11 -10 -5 0 -7 5 -4 10 3 6 8 10 11 10 2 0 4 -4 4 -10z m60 -95 c6 -3
10 -10 10 -15 0 -6 -21 0 -46 12 l-45 23 28 22 28 23 8 -30 c4 -16 12 -32 17
-35z m30 45 c0 -5 -4 -10 -10 -10 -5 0 -10 5 -10 10 0 6 5 10 10 10 6 0 10 -4
10 -10z m118 -2 c-6 -18 -28 -21 -28 -4 0 9 7 16 16 16 9 0 14 -5 12 -12z
m-48 -8 c0 -5 -4 -10 -10 -10 -5 0 -10 5 -10 10 0 6 5 10 10 10 6 0 10 -4 10
-10z"/>
<path d="M2880 4358 c-25 -5 -50 -9 -57 -10 -7 -1 -10 -5 -7 -10 3 -4 1 -8 -5
-8 -6 0 -14 -15 -19 -32 -14 -50 -1 -55 119 -46 144 11 308 -7 326 -35 4 -6 1
-7 -8 -2 -8 5 -11 4 -6 -1 4 -4 31 -18 60 -30 38 -16 54 -19 59 -11 4 7 0 18
-9 25 -16 11 -16 12 0 12 15 0 16 3 6 23 -16 30 -91 107 -100 102 -3 -3 -12 2
-19 10 -7 8 -17 15 -22 15 -6 0 -5 -7 3 -16 12 -14 8 -15 -37 -9 -27 3 -69 10
-94 15 -69 14 -140 17 -190 8z"/>
<path d="M2739 4217 c-33 -22 -49 -54 -62 -125 -4 -18 -3 -31 1 -28 4 2 18
-11 32 -30 25 -34 40 -43 40 -23 0 5 4 8 9 4 5 -3 3 8 -5 25 -25 49 -16 63 47
75 30 6 62 15 70 20 12 8 12 6 0 -8 -7 -9 -19 -17 -25 -17 -13 0 -62 -48 -55
-53 10 -8 119 -23 119 -16 0 4 -9 11 -20 14 -26 8 -25 30 2 49 31 22 38 20 38
-12 0 -16 6 -35 13 -44 11 -15 131 -42 122 -28 -3 4 4 15 15 25 11 10 20 26
20 37 0 23 12 23 34 -1 17 -18 17 -20 -4 -41 -12 -12 -19 -24 -16 -28 3 -3 6
-2 6 3 0 4 10 0 22 -11 12 -10 19 -14 15 -8 -9 15 51 13 79 -3 13 -7 25 -8 35
-2 9 5 10 9 2 9 -7 0 -17 9 -22 19 -9 17 -8 18 12 14 22 -5 22 -5 2 11 l-20
16 20 -6 c37 -11 -79 89 -131 113 -57 26 -136 43 -200 43 -26 0 -44 5 -44 11
0 7 -10 9 -26 5 -14 -4 -24 -3 -21 1 3 4 -12 9 -33 10 -26 2 -49 -5 -71 -20z
m398 -71 c55 -28 46 -36 -12 -11 -31 14 -68 25 -83 26 -24 0 -24 1 -7 8 22 9
56 2 102 -23z m-144 17 c-7 -2 -19 -2 -25 0 -7 3 -2 5 12 5 14 0 19 -2 13 -5z
m-13 -57 c0 -3 -4 -8 -10 -11 -5 -3 -10 -1 -10 4 0 6 5 11 10 11 6 0 10 -2 10
-4z m90 -16 c0 -13 -20 -13 -40 0 -12 8 -9 10 13 10 15 0 27 -4 27 -10z m-210
-20 c0 -5 -2 -10 -4 -10 -3 0 -8 5 -11 10 -3 6 -1 10 4 10 6 0 11 -4 11 -10z"/>
<path d="M1620 3881 c0 -38 5 -93 11 -121 10 -46 12 -49 24 -33 8 10 9 20 4
21 -5 2 -9 21 -9 43 0 21 -3 39 -7 39 -5 0 -7 25 -6 55 0 30 -3 57 -8 61 -5 3
-9 -26 -9 -65z"/>
<path d="M2351 3814 c-13 -25 -38 -60 -56 -79 -80 -79 -63 -203 30 -221 41 -7
43 -16 12 -41 -13 -10 -22 -25 -20 -33 4 -13 3 -13 -6 0 -8 12 -13 12 -35 1
-14 -8 -23 -18 -20 -23 3 -4 10 -5 16 -2 6 4 8 2 5 -4 -9 -13 2 -42 15 -42 6
0 8 7 4 15 -5 13 -2 14 17 4 12 -6 19 -8 15 -4 -11 12 15 32 37 27 18 -3 21 1
19 27 -1 17 2 31 7 31 21 0 7 40 -18 54 -19 10 -22 15 -11 16 9 0 23 -7 31
-15 8 -8 17 -12 20 -9 3 3 20 -2 38 -11 39 -21 101 -15 130 11 11 9 34 19 52
21 79 7 98 24 53 44 -23 11 -27 10 -110 -38 -42 -25 -82 -16 -125 27 -22 22
-41 40 -43 40 -2 0 -18 4 -36 9 -18 6 -30 6 -27 1 3 -5 -4 -11 -15 -15 -11 -4
-17 -11 -14 -17 4 -6 2 -8 -4 -4 -6 3 -13 2 -17 -4 -9 -15 -25 -2 -25 21 0 13
4 18 13 13 10 -6 10 -4 0 7 -7 7 -13 23 -13 34 0 23 38 65 58 65 7 0 21 14 31
31 10 17 20 26 22 20 2 -6 5 12 6 39 1 28 -1 50 -6 50 -4 0 -18 -21 -30 -46z
m-27 -252 c3 -5 -1 -9 -9 -9 -8 0 -12 4 -9 9 3 4 7 8 9 8 2 0 6 -4 9 -8z"/>
<path d="M3458 3755 c-6 -30 -3 -43 8 -33 3 4 4 19 2 35 l-3 28 -7 -30z"/>
<path d="M2700 3739 c0 -15 36 -79 45 -79 5 0 -32 78 -41 89 -2 2 -4 -2 -4
-10z"/>
<path d="M2670 3721 c0 -6 4 -13 10 -16 6 -3 7 1 4 9 -7 18 -14 21 -14 7z"/>
<path d="M3447 3608 c-13 -23 -21 -28 -26 -19 -8 13 -18 -18 -27 -84 -3 -30
-3 -29 9 4 7 19 22 38 33 42 10 4 15 8 10 8 -5 1 -2 8 5 17 12 14 25 64 17 64
-2 0 -11 -14 -21 -32z"/>
<path d="M2308 3613 c7 -3 16 -2 19 1 4 3 -2 6 -13 5 -11 0 -14 -3 -6 -6z"/>
<path d="M2761 3554 c-1 -11 -50 -35 -106 -52 -16 -5 -29 -13 -27 -18 4 -14
44 -10 83 8 42 20 63 42 56 60 -3 7 -6 8 -6 2z"/>
<path d="M2617 3460 c9 -9 9 -17 2 -26 -6 -8 -6 -14 0 -18 14 -9 38 3 38 19 0
12 -3 12 -16 2 -9 -7 -12 -8 -8 -1 4 7 -1 18 -11 25 -14 11 -15 11 -5 -1z"/>
<path d="M2032 3380 c-23 -22 -46 -49 -52 -59 -15 -30 -13 -71 5 -71 8 0 15 6
15 14 0 8 5 16 11 18 5 2 11 10 12 18 3 18 47 92 60 101 5 4 5 9 0 12 -6 4
-28 -12 -51 -33z"/>
<path d="M3365 3370 c-4 -23 -5 -44 -2 -46 3 -3 8 13 12 36 4 23 5 44 2 46 -3
3 -8 -13 -12 -36z"/>
<path d="M2240 3389 c0 -5 5 -7 10 -4 6 3 10 8 10 11 0 2 -4 4 -10 4 -5 0 -10
-5 -10 -11z"/>
<path d="M2357 3394 c7 -3 9 -13 6 -22 -4 -14 -3 -14 5 -2 12 16 7 30 -11 29
-9 0 -9 -2 0 -5z"/>
<path d="M2625 3370 c-3 -6 1 -7 9 -4 18 7 21 14 7 14 -6 0 -13 -4 -16 -10z"/>
<path d="M3420 3315 c-20 -15 -42 -23 -52 -19 -13 4 -18 0 -18 -16 0 -20 0
-20 38 -1 20 10 46 28 56 40 24 27 19 26 -24 -4z"/>
<path d="M1590 3270 c0 -11 4 -20 9 -20 5 0 7 9 4 20 -3 11 -7 20 -9 20 -2 0
-4 -9 -4 -20z"/>
<path d="M2325 3278 c-22 -5 -68 -19 -102 -30 -35 -11 -75 -18 -90 -17 -37 4
-52 -6 -46 -31 4 -15 9 -18 18 -10 19 16 61 2 110 -36 24 -18 63 -43 85 -54
l42 -21 -7 23 c-4 13 -16 34 -26 47 -28 35 -24 51 9 46 15 -3 54 -9 86 -15 33
-5 99 -10 148 -10 80 0 158 -17 158 -34 0 -9 -38 -45 -42 -41 -2 2 -14 -5 -28
-16 l-25 -19 34 11 c18 7 53 22 78 36 25 13 65 26 90 30 57 8 50 26 -13 34
-31 4 -82 24 -137 54 l-88 47 -59 -15 c-33 -8 -60 -11 -60 -6 0 12 -55 39 -77
38 -10 -1 -36 -5 -58 -11z"/>
<path d="M3340 3235 c0 -8 0 -17 0 -20 0 -3 3 -4 7 -2 10 3 11 37 1 37 -4 0
-8 -7 -8 -15z"/>
<path d="M3330 3180 c0 -5 5 -10 10 -10 6 0 10 5 10 10 0 6 -4 10 -10 10 -5 0
-10 -4 -10 -10z"/>
<path d="M3327 3150 c-3 -8 -8 -28 -11 -45 l-5 -30 15 34 c8 18 13 38 11 45
-3 7 -7 5 -10 -4z"/>
<path d="M1630 3101 c0 -6 4 -13 10 -16 6 -3 7 1 4 9 -7 18 -14 21 -14 7z"/>
<path d="M2443 3053 c9 -2 25 -2 35 0 9 3 1 5 -18 5 -19 0 -27 -2 -17 -5z"/>
<path d="M1907 2999 c7 -7 15 -10 18 -7 3 3 -2 9 -12 12 -14 6 -15 5 -6 -5z"/>
<path d="M2415 2990 c-3 -6 -4 -19 0 -29 4 -13 0 -23 -12 -30 -16 -9 -16 -10
5 -11 13 0 21 4 18 9 -3 5 0 11 8 14 7 3 16 17 18 31 4 20 1 26 -13 26 -10 0
-21 -5 -24 -10z m25 -31 c0 -6 -4 -7 -10 -4 -5 3 -10 11 -10 16 0 6 5 7 10 4
6 -3 10 -11 10 -16z"/>
<path d="M3216 2935 c8 -37 14 -45 14 -19 0 10 -5 26 -10 34 -8 11 -9 7 -4
-15z"/>
<path d="M3183 2888 c3 -11 1 -15 -5 -12 -6 4 -9 1 -7 -5 8 -22 22 -17 29 10
6 19 4 26 -7 26 -9 0 -13 -7 -10 -19z"/>
<path d="M2887 2719 c7 -7 15 -10 18 -7 3 3 -2 9 -12 12 -14 6 -15 5 -6 -5z"/>
<path d="M2892 2691 c-10 -6 -10 -10 2 -20 12 -10 15 -9 13 8 -1 12 -1 21 -2
21 0 0 -6 -4 -13 -9z"/>
<path d="M1223 2386 c-23 -13 -70 -40 -105 -59 -110 -60 -248 -148 -168 -107
35 18 324 182 329 186 14 13 -20 0 -56 -20z"/>
<path d="M900 2200 c-9 -6 -10 -10 -3 -10 6 0 15 5 18 10 8 12 4 12 -15 0z"/>
<path d="M800 2149 c-41 -22 -109 -62 -150 -89 -41 -26 -151 -94 -245 -150
-181 -110 -244 -150 -233 -150 9 0 103 55 333 195 116 71 246 150 289 177 77
47 94 58 85 58 -2 0 -38 -19 -79 -41z"/>
<path d="M134 1744 c-18 -14 -18 -15 4 -4 12 6 22 13 22 15 0 8 -5 6 -26 -11z"/>
<path d="M27 1693 c-15 -3 -27 -11 -27 -19 0 -13 4 -12 30 1 17 9 30 18 30 20
0 3 -1 4 -2 4 -2 -1 -15 -4 -31 -6z"/>
<path d="M1109 1141 c7 -5 18 -15 23 -22 8 -11 9 -10 4 3 -3 12 2 18 22 21 17
2 10 5 -18 5 -29 1 -40 -1 -31 -7z"/>
<path d="M1170 1060 c0 -5 11 -10 24 -10 14 0 28 5 31 10 4 6 -7 10 -24 10
-17 0 -31 -4 -31 -10z"/>
<path d="M1180 1020 c0 -5 4 -10 9 -10 6 0 13 5 16 10 3 6 -1 10 -9 10 -9 0
-16 -4 -16 -10z"/>
<path d="M1045 991 c-3 -5 -2 -12 3 -15 5 -3 9 1 9 9 0 17 -3 19 -12 6z"/>
<path d="M1023 965 c0 -8 4 -12 9 -9 5 3 6 10 3 15 -9 13 -12 11 -12 -6z"/>
<path d="M1045 951 c-3 -5 -2 -12 3 -15 5 -3 9 1 9 9 0 17 -3 19 -12 6z"/>
<path d="M1019 868 c-5 -18 -6 -38 -1 -34 7 8 12 36 6 36 -2 0 -4 -1 -5 -2z"/>
<path d="M1171 613 c-10 -26 -10 -27 4 -9 8 11 15 23 15 28 0 15 -7 8 -19 -19z"/>
<path d="M1057 475 c-8 -18 11 -31 25 -17 11 11 3 32 -12 32 -4 0 -10 -7 -13
-15z"/>
<path d="M1126 408 c3 -5 10 -6 15 -3 13 9 11 12 -6 12 -8 0 -12 -4 -9 -9z"/>
<path d="M1113 379 c-2 -23 3 -25 10 -4 4 8 3 16 -1 19 -4 3 -9 -4 -9 -15z"/>
<path d="M1223 283 c9 -2 25 -2 35 0 9 3 1 5 -18 5 -19 0 -27 -2 -17 -5z"/>
<path d="M1651 64 c0 -11 3 -14 6 -6 3 7 2 16 -1 19 -3 4 -6 -2 -5 -13z"/>
<path d="M3559 75 c-1 -3 -2 -8 -3 -12 -1 -5 -5 -15 -10 -23 -7 -12 -6 -13 4
-3 13 12 23 43 14 43 -2 0 -5 -2 -5 -5z"/>
<path d="M1673 55 c0 -8 4 -15 9 -15 4 0 8 4 8 9 0 6 -4 12 -8 15 -5 3 -9 -1
-9 -9z"/>
<path d="M1793 54 c4 -6 -3 -20 -16 -30 -12 -10 -16 -12 -9 -4 20 23 14 35 -8
15 -28 -25 -18 -33 42 -33 40 -1 49 2 36 9 -22 12 -23 29 -3 29 8 0 15 5 15
10 0 13 -17 13 -25 0 -5 -8 -12 -7 -23 2 -9 7 -13 8 -9 2z m21 -30 c3 -8 2
-12 -4 -9 -6 3 -10 10 -10 16 0 14 7 11 14 -7z"/>
<path d="M1879 48 c-5 -18 -6 -38 -1 -34 7 8 12 36 6 36 -2 0 -4 -1 -5 -2z"/>
<path d="M3513 21 c-10 -16 -9 -19 5 -17 9 2 16 6 15 10 -6 23 -9 24 -20 7z"/>
</g>
</svg>
