<?xml version="1.0" encoding="UTF-8" standalone="yes"?>
<!-- Created with sK1/UniConvertor (http://sk1project.org/) -->
<svg xmlns="http://www.w3.org/2000/svg" xmlns:xlink="http://www.w3.org/1999/xlink"
  width="513pt" height="684pt" viewBox="0 0 513 684"
  fill-rule="evenodd">
<g>
<g>
<path style="stroke:none; fill:#f2f2f2" d="M 265.5 105.4C 262.4 107.3 261.1 107.6 259.1 106.8C 257.7 106.3 252.9 105.6 248.5 105.3C 241.8 104.9 239.7 105.1 235.8 106.9C 231.6 108.7 231 109.3 231 112C 231 114.1 230.6 114.9 229.8 114.4C 229.1 114 229 114.1 229.4 114.8C 230.2 116.1 228.7 116.2 225 115L 222.5 114.2L 225 114.1C 229.9 113.9 224.7 112 219.5 112.1C 214.1 112.2 207.7 113.7 211.5 113.9C 212.8 114 211.7 115 208 116.9C 202.4 119.9 198.2 123.5 199.3 124.6C 199.6 125 198.8 127.4 197.5 130.1C 196.1 132.9 195 136.6 195.1 138.7C 195.1 141.9 195.3 142.2 196.1 140.5C 196.9 138.8 197 138.9 196.7 141.2C 196.5 142.7 196.7 143.7 197.1 143.4C 197.6 143.1 198 143.5 198 144.3C 198 146.2 202.9 150.7 207 152.3C 215.7 155.9 223.1 155.4 239.2 149.9C 246.1 147.6 249.5 147 256.4 147C 264.3 147 267.5 146.1 264.9 144.4C 264.1 143.9 264.1 143.5 265.1 143C 266.3 142.2 265.4 141.8 253 139C 246.7 137.6 240.4 134.3 237.5 130.9C 235.5 128.5 235.5 128.5 237.5 130.1C 244.3 135.7 251.7 137.3 266.2 136.3L 276.5 135.7L 268.1 131.8C 259 127.6 257.3 125.5 266.1 129.3C 269.1 130.6 274.4 132.5 278 133.4C 281.6 134.4 287.7 136.7 291.7 138.5C 295.6 140.3 299.1 141.6 299.3 141.3C 300.1 140.6 311 155.7 311 157.6C 311 157.9 309.4 156.8 307.5 155.1C 305.5 153.4 303.6 152 303.2 152C 302.8 152 303.6 152.9 305 154C 308.2 156.5 307.4 156.5 302.3 154C 297.7 151.8 281.5 148 277.3 148.1L 274.5 148.1L 277 149.3C 279.5 150.4 281.2 152.3 281 153.7C 280.9 154.1 281.7 154.8 282.7 155.2C 285.2 156.3 278.6 155.4 267 153.1C 260.1 151.7 258.6 151.2 261.5 151.1C 263.7 151.1 268.7 151.7 272.5 152.4C 276.4 153.2 279.7 153.6 279.9 153.5C 280.1 153.3 278.5 152.3 276.4 151.3C 273.3 149.9 270 149.5 260 149.5C 248.5 149.6 246.8 149.9 238.5 152.9C 227.7 156.7 216.5 157.9 209.4 156C 203 154.2 193.5 147.7 192 144.1C 191.3 142.4 191.1 139.7 191.5 137.8L 192.1 134.5L 189.6 137.3C 188.2 138.8 186.7 141.2 186.4 142.6C 185.8 145 186.9 152.2 188.5 156.5C 189.2 158.5 189.2 158.5 187.7 156.5C 185.5 153.5 183.8 146.3 184.5 143C 185.1 140.3 188.2 136.7 192.5 133.5C 193.8 132.6 194 132.1 193.1 132C 192.4 132 190.5 133.1 188.9 134.4C 187.4 135.7 185.6 137 185 137.2C 184.4 137.4 183.8 138.5 183.7 139.7C 183.7 140.9 183.3 141.7 182.9 141.4C 181.9 140.8 175 143.9 175 145C 175 145.6 173.7 146 172.1 146C 168.8 146 159 149.9 159 151.2C 159 151.7 159.7 151.7 160.8 151.2C 161.7 150.7 163.9 150 165.5 149.6L 168.5 148.9L 164.6 152.9C 162.4 155.1 160.8 157.2 161.1 157.4C 161.4 157.7 163.7 156.2 166.4 154.1C 170.2 151 178 147.3 178 148.4C 178 148.6 175.9 150.1 173.3 151.8C 168.9 154.6 161.9 161 163.2 161C 163.4 161 166.3 160.1 169.6 158.9C 179.6 155.3 184.1 154 183.6 154.9C 183.3 155.3 181.3 156.2 179.1 157C 176.9 157.7 175.2 158.6 175.3 158.9C 175.6 160.1 169 166.4 168.3 165.6C 167.9 165.2 169 163.5 170.8 161.9C 174.7 158.4 173.2 158.2 166.5 161.5C 160.2 164.5 157.6 166.6 158.4 167.9C 158.8 168.4 158.5 169.2 157.9 169.6C 157.1 170.1 156.9 169.9 157.5 168.9C 158.1 167.8 157.9 167.9 156.8 169C 155.9 169.8 154 172.7 152.4 175.5L 149.6 180.5L 155.8 174C 159.2 170.4 161.7 168.4 161.3 169.4C 160.8 170.8 161 171.1 161.9 170.5C 162.7 170.1 162.5 170.9 161.5 172.4C 160.6 173.8 159.4 174.8 159 174.5C 158.1 173.9 149.1 184.1 144.5 191C 142.7 193.7 140.6 198.6 139.8 201.7C 138.6 207.1 138.5 207.3 137.9 204.5C 137.4 202.1 137.2 202.5 137.1 206.7C 137.1 209.5 137.5 213.1 138.1 214.7C 139.2 217.4 139.3 217.1 141.4 209C 143.6 200.7 146 195.2 150.5 188C 151.7 186.1 153.9 182.3 155.4 179.7C 156.9 177 158.4 175.1 158.7 175.4C 159 175.7 158.8 176.5 158.2 177.2C 157.4 178.2 151.1 193.2 148.7 200C 148.3 201.1 148.1 200.9 148 199.5C 147.9 197.7 147.8 197.7 146.5 200C 145.7 201.4 143.7 206.8 142 212C 139 221.5 138.2 228.8 140 230.6C 140.5 231.1 141.1 233.5 141.3 236C 141.6 238.5 142.1 243.2 142.5 246.6C 143.3 253.3 141.8 260 139.5 260C 136.9 260 136.9 261.9 139.6 265.9C 142.2 269.9 148.9 273.7 147.6 270.5C 146.5 267.5 148 269.1 149.3 272.2C 151.4 277.2 152.1 282.9 150.7 283.6C 150 284 149.8 284 150.2 283.6C 150.9 282.8 150.7 282.6 143.9 274.8C 139.2 269.4 133.6 265.5 131.9 266.6C 130.1 267.6 128 273.6 128 277.4C 128 279.3 128.7 283.5 129.6 286.7C 130.5 289.9 131.6 294.5 132.1 297C 134.5 309.9 135.7 312.8 140.6 318.4C 143.3 321.5 145.6 323.7 145.8 323.2C 146.3 321.6 144.1 317 142.4 316.3C 140.5 315.6 135.9 305.8 135.3 301.2C 135.1 299.5 135.8 295 136.9 291.2C 138 287.5 139.1 282.8 139.5 280.7C 139.8 278.7 140.5 277 141 277C 142.4 277 150 286.2 150 287.9C 150 290.2 148 292 145.5 292C 144 292 143.8 292.2 144.9 292.9C 146 293.6 145.9 295.2 144.2 302.1C 142 311.5 142.5 313.3 147.9 314.3C 151.8 315.1 154 317.6 154 321.1C 154 322.8 154.4 323.9 154.9 323.6C 155.4 323.3 156 323.7 156.4 324.5C 156.7 325.3 156.5 326.2 156 326.5C 155.4 326.9 155 330 155 333.5C 155 339.7 154.9 339.9 152.3 340.3C 149.6 340.7 149.6 340.7 152.7 340.9C 155.6 341 155.9 341.4 157.1 346.2C 157.8 349.1 158.3 352.1 158.3 352.7C 158.3 353.4 158.7 354 159.1 354C 159.5 354 159.6 352.2 159.3 350C 158.9 347.4 159.2 345.4 160.1 344.3C 161.3 342.7 161.3 342.6 159.9 343.8C 158.4 344.9 158.2 344.4 157.6 339.9C 157.2 337.1 157.2 334.5 157.5 334.2C 158.3 333.4 160 336.2 159.4 337.2C 159.1 337.6 159.3 338 159.7 338C 160.2 338 160.6 338.8 160.7 339.7C 161.1 344.4 162.9 349.9 166.2 356.7C 166.8 357.8 166.9 359.3 166.6 359.9C 166.2 360.5 166.5 361 167.4 361C 168.2 361 169.2 362 169.5 363.2C 169.9 364.5 170.8 366.8 171.5 368.5C 172.2 370.1 173.1 372.3 173.4 373.3C 173.7 374.3 174.7 375 175.7 374.8C 176.7 374.6 177.6 375.2 177.6 376C 177.7 376.8 177.8 378.2 177.9 379C 178 380.2 178.2 380.2 178.9 379.2C 179.5 378.2 179.9 378.5 180.2 380.4C 180.5 381.8 180.6 383 180.4 383C 179.1 383 176 379.2 176 377.8C 176 376.8 175.4 376 174.6 376C 173.8 376 172.9 375.3 172.6 374.4C 172.3 373.5 171.5 373.2 170.8 373.6C 170.1 374 169.8 374 170.2 373.6C 170.8 372.9 167.7 369 166.5 369C 165.5 369 167.1 376.3 168.5 377.6C 169.3 378.5 170 379.7 170 380.5C 170 381.2 170.3 382 170.8 382.2C 171.2 382.3 172.4 384.3 173.6 386.5C 177.8 394.6 179.5 397.5 180.4 398.1C 181.4 398.9 180.3 401 179 401C 178.5 401 177.8 399.9 177.4 398.5C 177.1 397.1 176.4 396.2 176 396.5C 175.5 396.8 174.6 395.4 174 393.5C 173.4 391.6 172.3 390.1 171.7 390.3C 171 390.4 170.6 389.7 170.8 388.6C 171 387.4 170.7 387.1 170 387.5C 169.1 388 169 387.6 169.5 385.9C 169.9 384.6 169.9 383.9 169.4 384.3C 169 384.7 168 384 167.2 382.8C 166.4 381.4 166.1 381.2 166.4 382.3C 166.8 383.5 165.7 385.5 163.2 388.3C 157.5 394.5 154.8 398.8 155.6 400.1C 156 400.8 155.9 401 155.3 400.7C 154.7 400.3 150.2 407.7 145 417.3C 139.8 426.8 134.2 436.3 132.6 438.5C 130.9 440.6 130.1 442.1 130.8 441.7C 133.6 439.9 131.7 443 127.6 446.8C 125.2 449 117.2 457.4 110 465.5C 102.7 473.5 96.5001 479.9 96.3001 479.6C 96.0001 479.3 94.7001 479.5 93.4001 480C 89.3001 481.6 90.6001 479 97.3001 472.1C 100.7 468.6 102.7 466 101.6 466.4C 100.6 466.7 93.2001 471.4 85.1001 476.7C 71.6001 485.6 67.4001 488.7 48.8001 503.3C 45.2001 506.1 36.8001 511.8 30.2001 515.7C 23.7001 519.7 14.3001 525.8 9.40014 529.3L 0.500134 535.6L 0.200134 609.8L 0.000134453 684L 86.9001 684L 173.8 683.9L 173.6 681C 173.5 679.3 172.8 677.4 172 676.7C 171 675.8 170.9 675.8 171.4 676.8C 172.5 678.6 171.2 681.8 169.2 682.2C 166.8 682.7 164 680 164 677.2C 164 675.7 163.5 675 162.8 675.3C 162.1 675.5 161.6 676.3 161.8 677C 162.1 678.1 161.8 678.1 160.6 677C 159.4 676.1 158.7 676 157.6 676.9C 155.8 678.4 153.1 677.3 152 674.6C 151.3 672.9 151.1 673.4 151.1 676.7C 151 680 150.6 681 149.4 681C 148.4 681 148 680.5 148.4 679.4C 148.7 678.6 148.6 678.2 148.1 678.5C 147.6 678.8 146.9 678.6 146.6 678.1C 146.2 677.6 146.9 676.9 148 676.5C 150.1 675.8 150.8 673 148.9 673C 148.4 673 148.2 673.6 148.6 674.2C 149.1 675 148.6 674.9 147.5 674C 146.5 673.2 145.9 673 146.2 673.5C 146.6 674.1 146 675.1 144.9 675.8C 143.3 676.8 142.8 676.8 142.4 675.5C 142.1 674.7 141.4 674.3 140.9 674.6C 140.4 674.9 140 674.4 140 673.6C 140 672.8 139.6 671.8 139 671.5C 138.4 671.1 138.3 671.6 138.7 672.6C 139.2 673.9 139 674.1 137.9 673.5C 136.7 672.7 136.7 672.9 137.9 674.3C 138.9 675.6 138.9 676 138 676C 137.4 676 136.6 675.1 136.3 674C 136 672.9 135.4 672.2 135 672.5C 133.9 673.2 129 668.7 129 667.1C 129 666.5 128.7 666.1 128.3 666.1C 126.3 666.4 125.4 665.8 125.3 664C 125.2 662.8 125.8 662 126.8 661.9C 127.9 661.9 128 661.7 127.2 661.3C 126.5 661 125.3 661.3 124.6 662C 123.7 662.7 123 662.7 122.6 662.1C 122.2 661.6 122.4 660.9 123 660.5C 124.4 659.6 123.2 658 121.2 658C 119.7 658 119.7 658.2 121 659C 122.2 659.8 122.1 660 120.3 660C 119.1 660 117.8 659.5 117.5 659C 117.1 658.4 116.4 658.2 115.9 658.5C 115.4 658.8 115.3 658.4 115.6 657.6C 115.9 656.7 115.7 656 115.1 656C 114.5 656 114.3 655.4 114.6 654.7C 114.9 653.9 114.5 652.8 113.7 652.2C 112.5 651.2 112.3 651.4 112.4 653.5C 112.4 654.9 112.1 656 111.5 656C 111 656 110.7 654.6 110.8 653C 111 651.2 110.5 649.4 109.6 648.4C 108.7 647.6 108.3 646.4 108.6 645.8C 109 645.2 108.9 644.5 108.4 644.1C 106.8 643 102 636.2 102 635.1C 102 634.5 101.5 634 101 634C 99.2001 634 97.5001 629.1 98.8001 627.8C 100.8 625.8 100.2 623.7 97.9001 624.3C 96.2001 624.8 96.1001 624.6 97.2001 623.3C 98.4001 621.8 98.3001 621.8 96.3001 622.9C 94.4001 623.9 94.1001 623.8 94.6001 622.6C 94.9001 621.7 95.5001 621.1 95.8001 621.2C 97.9001 621.4 99.0001 620.8 99.0001 619.5C 99.0001 617.7 97.9001 617.6 96.0001 619.3C 94.8001 620.3 94.8001 620.2 95.8001 618.9C 96.4001 618.1 96.8001 615.7 96.6001 613.6C 96.5001 611.5 96.8001 609.3 97.4001 608.6C 98.0001 608 98.6001 606.1 98.6001 604.5C 98.8001 599.4 99.4001 596.1 100.1 596.6C 100.5 596.8 101.4 596.2 102.1 595.3C 103.3 593.8 103.3 593.7 101.6 594.3C 100 594.9 99.9001 594.8 101 593.5C 102.1 592.2 102 592.1 100.5 592.6C 99.2001 593.1 98.9001 593 99.4001 592.2C 100.5 590.4 100.9 583.9 99.9001 584.6C 99.4001 584.9 99.3001 585.6 99.6001 586.2C 100 586.8 99.8001 587 99.3001 586.7C 97.9001 585.8 98.7001 579.8 100.3 578.8C 100.9 578.4 103 578 104.9 578C 107.8 578 108.2 578.3 107.7 580.3C 107.4 581.5 106.8 586.4 106.5 591.2C 105.8 599.6 105.9 600 107.8 600C 108.9 600 110 599.3 110.4 598.5C 110.7 597.7 111.5 597.1 112.1 597.2C 112.7 597.4 113.5 596.9 113.8 596.1C 114.1 595.1 113.8 594.9 112.7 595.3C 110.3 596.2 109.2 588.5 111.5 586C 112.4 585 113 583.3 112.9 582.3C 112.7 581.3 112.9 580 113.3 579.3C 114.2 577.9 110.7 575.7 109.4 576.8C 109 577.2 109.4 576.2 110.4 574.7C 111.4 573.1 111.9 571.6 111.6 571.2C 111.3 570.9 111 571.2 111 571.8C 111 572.5 110.6 573 110.2 573C 109.7 573 109.4 572.1 109.5 571C 109.7 568.7 113.3 565.7 114.5 566.8C 115 567.2 115 566.9 114.6 566.2C 114 565.2 113.5 565.2 112.4 566.1C 111.3 567 111 566.9 111 565.6C 111 563.1 111.4 562.5 112.7 562.8C 113.4 563 114 562.6 114 562C 114 561.5 113.6 561 113 561C 111.1 561 112 558.2 115.1 554.9C 117.6 552.2 118.3 551.9 119.1 553.1C 119.7 554.1 120 553.6 119.8 551.4C 119.7 549.7 119 548.3 118.3 548.3C 117.5 548.3 117.4 548.7 118 549.5C 118.6 550.2 118.3 550.6 117.1 550.6C 115.9 550.6 115.4 550 115.8 548.8C 116 547.7 117.2 547 118.6 547C 119.9 547 121 546.4 121 545.7C 121 544.9 121.4 545 122 546C 122.8 547.3 123 547.3 123 545.8C 123 544.9 122.5 543.8 122 543.5C 121.4 543.1 121.2 542.5 121.5 542C 121.9 541.4 122.9 541.5 124 542.2C 125.4 543.1 125.6 543.9 124.9 545.6C 124.3 547.4 124.4 547.8 125.5 547.3C 127 546.8 127.4 545.8 127.1 542.7C 126.8 540.7 130.9 538.8 132.7 540.2C 133.3 540.7 134.1 542.2 134.5 543.7C 134.8 545.1 135.4 546 135.7 545.6C 136 545.3 136.8 545.9 137.4 546.9C 138 547.9 141.2 553.2 144.5 558.6C 147.8 564.1 150.3 568.9 150.2 569.3C 150.1 569.8 150.4 569.9 150.9 569.6C 151.4 569.3 152.5 570.9 153.4 573.1C 156.6 581.1 156.6 578.3 153 548.1C 152.5 543.5 151.8 539.5 151.6 539.2C 151.3 539 151.5 537.9 152.1 536.9C 152.7 535.6 152.7 535 152 535C 151.5 535 151 534.6 151 534C 151 533.5 151.3 533.1 151.8 533.2C 152.2 533.3 153.4 532.9 154.6 532.3C 156.4 531.2 157.1 531.5 159.8 534.3C 163.4 538.1 165.6 542.9 171.5 560.4C 183 594.8 191.7 624.9 192.9 633.8C 195.2 651.8 196.1 662.2 196.3 672.5L 196.5 683.5L 201.9 683.8L 207.3 684.1L 206.6 673.8C 205.8 659.4 205.6 648.1 206.2 647.5C 206.5 647.2 207 653.4 207.4 661.2C 207.8 669.1 208.3 677.4 208.6 679.7L 209.2 684L 259.2 684L 309.2 684L 308.5 669.7C 308 661.9 307.8 641.6 308 624.5C 308.2 607.4 308.3 588.1 308.4 581.5C 308.5 574.9 308.1 561.2 307.6 551C 307.2 540.8 307 532.7 307.3 533C 308.7 534.4 309.4 560.7 309.4 618.7C 309.5 654 309.8 683.2 310.3 683.6C 310.7 684 311.3 684 311.7 683.7C 312 683.3 311.8 670.5 311.1 655.2C 310.1 633.4 310.1 622.9 311.1 606C 312.2 586.2 312 572.5 310.5 551.5L 309.9 543.5L 315.9 538.8C 319.3 536.2 322 534.4 322 534.8C 322 535.5 319.7 542 317.2 548.2C 315.5 552.4 317.7 550.8 324.5 543C 327.8 539.1 330.7 536.5 330.9 537.2C 331.1 537.8 330.7 544.1 330 551.2C 329 561.3 328.9 565.1 329.9 569.2C 331.2 575.2 333.5 578.9 334.9 577.4C 336 576.4 342.8 551 345.9 537C 348.5 525 350 513.5 350 506C 350 502.8 350.4 499.9 350.8 499.6C 351.6 499.1 365.4 508.2 371.5 513.2C 374 515.3 380.1 519.5 391.5 526.8C 392.6 527.5 394.3 528.3 395.3 528.6C 396.2 529 397 529.6 397 530.1C 397 530.6 398.1 531 399.4 531C 400.8 531 402.5 531.7 403.3 532.5C 404.1 533.3 405 533.7 405.3 533.4C 406.2 532.5 429.7 547.3 439.5 555C 442.8 557.6 448 561.5 451.1 563.6C 454.2 565.7 459.4 569.7 462.6 572.5C 465.8 575.2 472.2 580.8 476.9 584.9C 481.9 589.2 486 593.6 486.7 595.4C 487.4 597.1 487.9 597.9 487.9 597.2C 488 596.6 488.4 596 488.9 596C 490.8 596 490.9 599.5 489.1 604.9C 485.8 614.7 484 620.8 484 622.4C 484 623.2 483.5 624.2 482.8 624.6C 482.2 625 482 624.9 482.4 624.2C 482.7 623.6 482.6 622.9 482 622.5C 481.5 622.2 481 622.4 481 623C 481 623.7 480.4 625.6 479.6 627.3C 478.8 629.1 478 631.2 477.7 632C 477.4 633 477 632.5 476.5 630.7C 476 629 475.2 628.1 474.5 628.4C 473.7 628.7 472.9 627.9 472.6 626.4C 472.2 625 471.6 624.2 471.1 624.5C 470.1 625.1 469.5 622.2 468 610C 467.5 605.3 466.3 598.6 465.5 595L 464 588.5L 464.6 602.5C 464.9 610.2 465.3 618.5 465.5 621C 465.9 624.4 465.7 624.9 465.1 623L 464.2 620.5L 464 623C 463.9 624.4 463.8 626.1 463.9 626.7C 464 627.4 463.5 628.6 462.8 629.4C 461.7 630.5 461.3 630.5 460.3 629.1C 459.6 628.2 459 628 459 628.7C 459 630.1 453.2 629.3 451.6 627.7C 450.5 626.6 445 610.9 445 608.9C 445 607.1 434.9 581.7 434.4 582.3C 434 582.7 439.4 603.3 441.5 609.5C 442.5 612.2 444.3 619.4 445.6 625.5C 448.5 639.5 449.5 643.4 450.6 645.1C 451.2 646.3 451.1 646.3 449.8 645.2C 448.5 644.2 448.2 644.3 447.7 645.9C 447.2 648 443.6 648.5 441.4 646.8C 440.6 646.2 440.4 646.8 440.8 648.5C 441.3 651.5 439.8 651.5 436.8 648.7C 435.8 647.7 434.5 647.2 433.9 647.5C 433.4 647.9 432.3 647.7 431.6 647.1C 430.8 646.4 429.3 646.4 427.2 647C 425.4 647.5 424 647.6 424 647.3C 424 647 423.4 647.3 422.7 647.9C 421.9 648.5 421.1 648.7 420.8 648.4C 420.5 648.1 419.3 649 418.2 650.4C 417.2 651.8 415.9 652.6 415.5 652.2C 415 651.8 415 652.4 415.4 653.5C 415.8 654.6 415.8 655.1 415.4 654.8C 415 654.4 413.8 654.6 412.6 655.2C 410.6 656.3 410.6 656.2 412.3 654.3C 413.7 652.7 413.7 652.3 412.5 652.3C 411.7 652.3 411.3 652.7 411.6 653.1C 412.3 654.3 405.6 659 404.6 658C 404.1 657.5 402.9 658 401.7 659.1C 400.5 660.2 398.9 660.8 398 660.5C 395.3 659.4 394.5 659.5 394.7 660.7C 394.9 661.4 394.3 662 393.5 662C 392.7 662 392 662.4 392 662.9C 392 663.5 391.1 663.7 390 663.5C 388.7 663.2 387.5 664 386.3 666.1C 384.6 669 384.5 669 383.7 666.8C 382.9 664.6 381.1 665.3 380.7 668.1C 380.1 671.5 377 673.6 377 670.5C 377 669.7 376.6 669 376 669C 375.5 669 375.4 669.7 375.7 670.7C 376.2 671.9 376 672.1 374.9 671.4C 372.8 670.1 369.1 670.2 368 671.5C 367.2 672.4 367.5 672.7 369.1 672.6C 370.4 672.5 371.6 673.3 372 674.6C 372.6 676.1 372.4 676.7 371.4 676.7C 370.6 676.7 370.1 676.2 370.3 675.6C 370.6 675 369.6 674.4 368.2 674.3C 366.4 674.2 366.1 674.4 367.1 675.1C 368.1 675.7 368.1 676 367.3 676C 366.6 676 366 676.7 366 677.5C 366 678.3 366.5 679 367.1 679C 367.7 679 367.4 679.7 366.6 680.6C 364.9 682.3 362.6 681.6 363.6 679.7C 364 679 363.9 678.8 363.5 679.3C 363 679.7 361.6 679 360.4 677.9L 358.1 675.7L 358.5 678.1C 358.8 679.4 359.5 680.7 360 680.8C 360.6 681 360.3 681.8 359.3 682.6C 357.8 683.7 369.3 683.9 435.3 684L 513 684L 513 633.3C 513 588.5 512.8 582.8 511.5 584.6C 510.7 585.6 510 587.8 510 589.5C 510 591.1 507.7 599 504.9 607C 502.1 615 499.2 623.7 498.4 626.3C 497.6 628.9 496.5 630.8 496 630.5C 495.4 630.1 495 630.6 495 631.4C 495 633.2 493.4 633.5 492.5 632C 491.6 630.5 487.7 631.2 486.7 633C 486.3 633.8 486.2 633.1 486.5 631.5C 486.8 629.8 487.4 626.1 487.7 623.3C 488 620.4 488.6 618.3 489.1 618.5C 489.5 618.8 490.2 618.5 490.6 617.9C 491.1 617.1 490.9 617 490 617.5C 489 618.1 488.8 617.7 489.4 615.9C 489.7 614.6 490.5 611.1 491.1 608.3C 492.1 603 497.4 588.1 502.4 576.1C 505.1 569.8 513 540.5 513 536.8C 513 535.8 512.4 535 511.7 535C 511 535 508.8 533.4 506.9 531.4C 503 527.3 497.9 523.6 487 517C 482.9 514.4 477.3 510.7 474.6 508.7C 472 506.6 467.2 503.7 464.1 502.1C 461 500.6 456.2 497.7 453.5 495.8C 450.7 493.8 446.3 491.1 443.5 489.7C 440.8 488.3 436.5 485.7 434 483.9C 425.4 477.5 422.7 475.9 413.1 471.1C 407.8 468.4 396.5 461.9 388 456.7C 379.5 451.5 369.2 445.2 365.1 442.8C 354.8 436.7 351.3 433.5 348 427C 346.4 423.9 341.5 415.3 337 407.9C 332.6 400.5 328.7 393.5 328.4 392.3C 327.9 390.5 329.2 385.3 331.8 378.2C 332 377.6 331.7 377 331.1 377C 330.5 377 330 377.7 330 378.6C 330 383.5 320.3 402 318.7 400.3C 318.3 400 318 400.4 318 401.3C 318 402.2 317.6 403 317.1 403C 316.6 403 316.4 402.2 316.7 401.1C 317.4 398.2 315.1 397.6 312.9 400.1C 311.7 401.5 311.2 403.1 311.6 404.4C 312 405.9 311.9 406.1 311.2 405.1C 310.1 403.5 308 404.5 308 406.6C 308 407.4 307.6 407.8 307 407.5C 306.5 407.2 306 407.6 306 408.5C 306 409.4 305.6 409.9 305.2 409.6C 304.4 409.1 302.5 410.7 297.1 416.7C 295.5 418.4 293.1 420.1 291.8 420.5C 290.5 420.9 289.8 420.9 290.2 420.5C 291.2 419.5 289.2 417 287.4 417C 286.7 417 285.8 417.9 285.5 419C 285.1 420.1 284.4 420.8 283.9 420.5C 283.4 420.1 283 420.7 283 421.6C 283 422.6 282.7 423 282.3 422.7C 282 422.3 280.7 423.1 279.5 424.5C 278.2 425.8 276.9 426.6 276.6 426.2C 276.2 425.9 275.7 426.6 275.3 427.8C 274.9 429.7 274.6 429.8 273.6 428.6C 272.4 427 267.4 428.3 268.5 429.9C 268.8 430.5 268.2 430.7 267.1 430.5C 265.8 430.3 264.9 430.8 264.5 431.9C 264.1 433.2 263.3 433.6 261.5 433.2C 260 433 259 433.2 259 433.9C 259 434.6 258.5 434.8 257.8 434.3C 257.1 433.9 254.3 433.5 251.7 433.4C 249 433.4 246.5 432.9 246.2 432.3C 245.8 431.8 244.8 431.2 244 431.2C 240.1 430.9 234.2 430.9 230.8 431.3C 228.7 431.5 227 431.3 227 430.8C 227 430.3 226.6 430.2 226 430.5C 225.4 430.8 225 430.7 225 430.3C 225 429.9 222 428.4 218.3 427.1C 211.2 424.6 207.7 422.3 208.6 420.9C 208.9 420.4 208.4 420 207.6 420C 206.7 420 206 419.3 206 418.5C 206 417.7 205.6 417 205 417C 204.5 417 204 416.3 204 415.5C 204 414.7 203.5 414 202.8 414C 201.9 414 201.9 413.7 202.7 412.9C 203.5 412.1 203.3 411.2 201.6 409.6C 200.4 408.5 199.4 406.6 199.4 405.5C 199.4 402.5 198 399 196.9 399C 196.3 399 196.1 398.6 196.4 398.1C 196.8 397.6 196.4 396.9 195.8 396.7C 195 396.4 195.2 396.1 196.3 396.1C 197.9 396 197.9 395.8 196.4 393.5C 195.4 392 195.2 391 195.9 391C 196.5 391 197 390.2 197 389.1C 197 387.8 196.1 387.1 194.2 386.8C 192.2 386.5 191.3 386.8 191.3 387.8C 191.3 388.7 192.1 388.9 193.7 388.5C 196.8 387.7 196.7 389.8 193.4 391C 190.3 392.2 186.8 390.7 187.6 388.5C 188 387.6 187.7 386.4 187.1 385.6C 186.5 384.9 186.3 384 186.7 383.6C 187.1 383.2 186.7 383.2 185.7 383.6C 184.1 384.2 184.1 384.3 185.6 385.5C 186.7 386.3 187 387.1 186.4 388.1C 185.6 389.4 185.3 389.4 183.8 387.8C 182.7 386.8 182.5 386 183.2 386C 183.8 386 184 385.7 183.7 385.4C 183.4 385 183.5 383.9 184 383C 184.7 381.6 184.5 381.1 183 380.7C 181.8 380.4 181.2 379.4 181.3 378.2C 181.4 376.7 181.8 376.4 182.6 377.1C 183.4 377.8 183.6 377.3 183.2 375.5C 183 374.1 182.4 373 181.9 373C 181.4 373 181 372.5 181 371.9C 181 371.4 181.5 371.2 182.2 371.6C 182.9 372 183 371.9 182.6 371.2C 181.5 369.4 180.8 365.9 180.9 362.2C 181 357.9 179 353.2 175.6 349.5C 174.1 347.9 173.2 346 173.4 345.3C 173.7 344.5 173.3 343.7 172.5 343.4C 171.7 343 171.3 342.4 171.6 341.9C 171.9 341.3 171.7 340.4 171.2 339.7C 170.7 339 170.3 337.1 170.4 335.5C 170.5 333.8 170.2 332 169.7 331.3C 169.2 330.7 168.7 327.5 168.4 324.3C 167.9 317.3 166.5 314.1 164 314.7C 161.8 315.3 157 310.7 157 308C 157 307 156.5 305.8 156 305.5C 155.4 305.1 155.2 304.5 155.5 304C 155.8 303.5 155.5 300.9 154.9 298C 153.7 292.3 153.2 281 154.2 281.6C 154.5 281.8 155.1 277.6 155.4 272.3C 157 245.5 160 229.3 164.4 223.5C 165.3 222.4 166 220.7 166 219.7C 166 218.8 166.4 217.2 166.9 216.2C 167.4 215.3 168.4 213.2 169.1 211.6C 170.4 208.9 170.5 209.5 170.8 219.6C 170.9 225.6 171.5 230.9 172 231.4C 172.7 232.1 173 232 173 231.2C 173 230.5 173.7 230 174.6 230C 175.7 230 176 229.5 175.6 228.3C 175.2 227.3 175.2 226.9 175.6 227.3C 176.5 228.2 180 225.1 180 223.3C 180 222.6 180.5 222 181.1 222C 181.6 222 181.8 221.5 181.5 221C 181.2 220.4 181.4 220 182 220C 182.6 220 182.8 219.5 182.5 219C 182.2 218.4 182.3 218 182.9 218C 183.5 218 183.7 217.3 183.3 216.4C 183 215.5 183.2 214.5 183.9 214.1C 184.5 213.7 185.3 212 185.6 210.4C 185.9 208.8 186.4 207.3 186.8 207C 187.6 206.4 187.5 207 189 196C 190.1 188.2 191.3 184 192.6 184C 192.9 184 192.8 184.4 192.5 185C 192.2 185.5 192.4 186 192.9 186C 193.5 186 194 185.3 194 184.5C 194 183.6 194.6 183.3 195.6 183.7C 196.6 184.1 197.3 183.6 197.7 182.1C 198 181 198.7 180 199.2 180C 199.7 180 199.9 179.6 199.6 179.1C 198.9 178 205.8 173.8 207.1 174.5C 207.6 174.9 208 174.3 208 173.3C 208 171.9 208.2 171.8 208.9 172.9C 209.5 173.8 210 173.9 210.4 173.1C 210.8 172.5 211.5 172.2 212 172.5C 212.5 172.8 213.1 172.7 213.4 172.2C 213.7 171.7 215.6 171.5 217.6 171.6C 219.6 171.8 223 171.6 225.1 171.1C 227.7 170.5 228.8 170.6 228.4 171.2C 228 171.8 228.6 172 229.9 171.5C 231.7 171 232 171.3 232 173.4C 232 178.7 220.5 187.9 209.3 191.5C 203.7 193.3 202.2 194.5 206.8 193.4C 210.9 192.4 224.1 186 227.8 183.1C 229.7 181.7 232.8 178.2 234.8 175.4C 237 172.4 239.1 170.5 239.9 170.8C 240.7 171.1 241 170.8 240.6 170.2C 240.2 169.6 241.3 169.3 243.5 169.5C 245.5 169.7 247 169.4 247 168.8C 247 168.2 247.7 168.3 248.7 169.1C 250.1 170.3 250.3 170.3 249.6 169.1C 248.9 168 249.5 167.8 252.3 168.2C 254.3 168.4 255.7 168.3 255.4 167.9C 254.9 167 260.4 166.4 264.8 166.8C 266.8 167 267.8 167.5 267.4 168.2C 266.9 168.9 267.2 169 267.9 168.5C 269.9 167.3 280 167.1 280 168.2C 280 168.8 280.6 168.7 281.5 168C 282.3 167.3 283 167.2 283 167.7C 283 168.2 284.4 168.5 286 168.2C 287.7 168 291.8 168.4 295.2 169.1C 300.1 170.2 300.8 170.6 298.9 171.1C 297.1 171.6 297.5 171.8 300.8 171.9C 303.1 172 305 172.4 305 173C 305 173.5 306.4 173.8 308.1 173.6C 309.8 173.5 313 174.1 315 175.1C 318.4 176.7 319.2 177.9 321.8 184.7C 323.5 189 325.6 195.5 326.6 199.2C 327.6 202.9 328.7 205.7 329.2 205.4C 331 204.3 333.8 207.2 334.9 211.5C 335.6 214.4 336.6 216 337.5 216C 338.4 216 339.3 216.8 339.6 217.7C 339.9 218.7 341.7 223 343.7 227.2C 345.6 231.5 347.4 236.8 347.7 239C 348 241.2 348.7 243.3 349.3 243.7C 350.2 244.3 349.8 233.5 348.5 224L 348 220.5L 349 223.7C 349.6 225.5 350.6 227.2 351.2 227.6C 352 228.1 352.1 227.8 351.6 226.4C 351.1 225.4 350.3 222.7 349.8 220.5C 349.3 218.4 348.4 215.9 347.7 215.2C 345.8 212.8 344.3 207.3 345.1 205.8C 345.5 205 345.3 202.4 344.6 199.9C 342.7 193.4 341.8 188.1 343 190.1C 343.5 191 344.2 193.4 344.6 195.4C 344.9 197.4 346.3 202.3 347.7 206.3C 353.4 222.4 354 224.4 354 227.2C 354 228.8 354.6 231.3 355.4 232.8C 356.1 234.3 357.1 236.6 357.4 238C 358.1 240.3 358 240.4 356.8 238.5C 355.6 236.7 355.4 237.2 354.9 243L 354.3 249.5L 354.2 242.5C 353.9 231.6 352.7 229 351.7 237.5C 350.7 247.2 350.7 247.8 351.4 254C 351.7 257 351.7 258.6 351.3 257.5C 350 253.3 346.1 279 346.2 291.5C 346.2 298.1 346.5 302.6 346.7 301.5C 347 300.4 349.6 297.6 352.6 295.3L 358 291L 357.6 296.6C 357.4 299.6 356.9 302.4 356.6 302.7C 356.3 303.1 356 306.5 356 310.4C 356 315.5 356.3 317.1 357.1 316.3C 358.5 314.9 362.8 298.3 363.6 290.8C 364.2 285.7 364 285 362.5 285C 361.6 285 357.7 288 353.9 291.7L 347 298.3L 347 295.2C 347 292.9 347.9 291.2 350 289.3C 351.7 287.9 353 286 353 285.2C 353 284.4 353.6 284 354.5 284.4C 355.3 284.7 355.9 284.4 355.7 283.7C 355.6 283 356.1 282.6 356.8 282.8C 357.4 282.9 358 282.3 358 281.4C 358 280.6 358.4 280.1 358.9 280.5C 359.4 280.8 360.1 280.6 360.5 280C 360.9 279.4 359.9 279 358.1 279C 354.9 279 353.6 276.5 356.3 275.4C 357.1 275.1 357.6 272.5 357.7 268.1C 357.8 262.8 358.7 259.1 361.3 252.3C 364.3 245 364.9 241.9 365.3 234C 365.6 228.8 366.3 222.4 366.9 219.9C 367.8 216.5 367.8 214.2 367 210.9C 364.7 202.1 363.3 190.1 364.4 189C 365.1 188.3 365.1 187.4 364.2 186C 363.6 184.9 363 183.2 363 182.3C 363 180.2 356.8 167.8 353.9 164.1C 352.1 161.9 352 161.5 353.4 161.2C 354.3 161 356.4 161.8 358.1 163C 363.2 166.7 362.3 164.7 356.5 159.6C 353.5 157 351 154.2 351 153.4C 351 152.6 350.4 152.3 349.5 152.6C 347.4 153.5 347.6 152 350.2 149.3L 352.3 147L 345.9 147C 342.4 147 338.5 147.3 337.3 147.6C 334.7 148.3 335.2 150 337.9 150C 340.3 150 351.5 155.6 353.2 157.7C 354.3 159.1 354.3 159.3 353 158.8C 343.9 155.3 340.8 154.2 342.4 155.3C 349.6 159.9 357.7 171.4 356.8 175.7C 356.5 177 355.8 176.3 354.6 173.5C 353.7 171.3 351.2 167.8 349.2 165.6C 344.9 161.2 334.6 156 330 156C 327.3 156 327 155.7 327.5 154C 328.7 150.3 334.3 145.6 338.5 144.9L 342.5 144.3L 337.8 144.1C 335.1 144.1 333 144.4 333 145C 333 146.3 327.2 149.2 325.7 148.7C 325 148.5 326 147.4 327.7 146.3C 330.2 144.8 330.7 144.1 329.8 143.2C 328.1 141.5 327 141.7 327 143.7C 327 147 325.9 144.2 325 138.5C 324.5 135.3 323.6 132.2 323.1 131.7C 322.5 131.1 322.5 132.2 323.1 134.6C 323.5 136.8 323.9 140.5 323.9 143L 323.8 147.5L 322.8 143C 321.1 134.9 319.7 129.9 319.3 130.3C 319.1 130.6 319.4 132.7 320 135.2C 320.6 137.6 321 141.6 320.8 144L 320.5 148.5L 319.2 144C 317.1 136.6 315.8 134 314.7 134.7C 314.2 135 314 134.9 314.3 134.3C 316.2 131.3 301 112.7 294 109.5C 291.6 108.4 290.4 107.4 291 107C 291.8 106.5 291.6 106.1 290.5 105.7C 289.6 105.3 289.2 105.4 289.5 106C 289.8 106.6 289.5 107 288.8 107C 288.1 107 290 108.4 293 110.1C 298.6 113.2 304 117.7 304 119.3C 304 119.8 302.4 118.8 300.5 117.1C 298.6 115.4 295.5 113.3 293.7 112.4L 290.5 110.8L 294.1 113.8C 296 115.5 299 118.6 300.5 120.6L 303.4 124.4L 300.8 122.5C 299.4 121.4 298.5 120.1 298.8 119.6C 299.1 119.1 298.6 118.9 297.7 119.3C 296.8 119.6 296.1 119.6 296.3 119.1C 296.4 118.7 293.7 116 290.3 113.1C 284.2 108 278.2 105.1 273.1 104.9C 270.9 104.8 271 104.6 274 104L 277.5 103.3L 273.5 103.1C 270.9 103.1 268.1 103.8 265.5 105.4zM 246 106.7C 245.2 107 242.8 108.1 240.8 109.1C 237.1 110.9 237 110.9 238.2 109C 239.4 107.1 241.5 106.3 245.5 106.2C 246.8 106.2 247 106.3 246 106.7zM 260.5 109.6C 262.2 110.4 262.7 110.8 261.7 110.5C 260.7 110.2 257.5 110 254.7 109.9C 250.6 109.8 250 109.6 252 109C 255.7 107.8 257.2 107.9 260.5 109.6zM 234.7 113.7C 233.9 119.3 232.9 122 231.9 121.4C 230.4 120.5 230.9 115.3 232.6 113.6C 233.4 112.7 233.9 112 233.5 112C 233.2 112 233.2 111.5 233.5 111C 234.7 109 235.2 110.1 234.7 113.7zM 262.7 113.4C 262.9 113.6 258.7 113.7 253.3 113.6C 245.3 113.5 242.9 113.8 240.6 115.3C 239.1 116.3 237.6 116.9 237.3 116.6C 236.5 115.9 244.9 112.1 247.3 112C 248.3 112 248.9 111.6 248.6 111.1C 248.1 110.3 261.8 112.5 262.7 113.4zM 271.4 112.9C 273.6 113.4 277.9 114.3 280.9 114.9C 286.1 116 295.5 120.1 297.5 122.2C 298.1 122.8 296.5 122.2 294.1 121C 289.1 118.5 283.3 116.7 274.5 115C 271.2 114.3 267.4 113.1 266 112.3C 264.6 111.5 264.3 111.1 265.4 111.5C 266.4 111.8 269.1 112.4 271.4 112.9zM 226.3 117.7C 225.6 117.9 224.4 117.9 223.8 117.7C 223.1 117.4 223.6 117.2 225 117.2C 226.4 117.2 226.9 117.4 226.3 117.7zM 224.7 119.6C 224.4 119.9 223.5 120 222.8 119.7C 222 119.4 222.3 119.1 223.4 119.1C 224.5 119 225.1 119.3 224.7 119.6zM 228.5 121C 228.8 121.6 228.4 121.7 227.6 121.4C 225.8 120.7 225.5 120 226.9 120C 227.5 120 228.2 120.4 228.5 121zM 226 126.6L 230.5 128L 224 127.4C 220.4 127 216.2 126.2 214.5 125.5C 211.6 124.3 211.7 124.3 216.5 124.7C 219.3 125 223.5 125.8 226 126.6zM 252 131.9C 254.5 132.5 257.6 133.2 259 133.4C 260.4 133.7 258.8 133.7 255.4 133.6C 252 133.4 248 132.5 246.4 131.6C 244.7 130.6 244.3 130.1 245.5 130.4C 246.6 130.7 249.5 131.4 252 131.9zM 269.8 134.7C 268.8 134.9 267 134.9 265.8 134.7C 264.5 134.5 265.3 134.3 267.5 134.3C 269.7 134.2 270.7 134.4 269.8 134.7zM 180 144.4C 180 144.6 179.1 145 178 145.3C 176.9 145.6 176.2 145.4 176.6 144.9C 177.1 144 180 143.6 180 144.4zM 258 145.1C 255.5 145.5 252.4 145.8 251 145.8C 248.7 145.8 248.8 145.7 251.5 145C 253.2 144.6 256.3 144.2 258.5 144.2L 262.5 144.3L 258 145.1zM 270.8 155.7C 269.8 155.9 268.2 155.9 267.3 155.7C 266.3 155.4 267.1 155.2 269 155.2C 270.9 155.2 271.7 155.4 270.8 155.7zM 344 163.2C 346.3 165 349.1 168.1 350.3 170C 352.1 173.1 351.9 173 348.1 168.8C 345.8 166.2 342.4 163.5 340.5 162.9C 338.6 162.2 337.3 161.3 337.6 160.8C 338.5 159.4 339.7 159.9 344 163.2zM 358.6 194.3C 358.9 199.4 358.7 205.5 358.2 208C 357.3 212.1 357.2 211.7 357.2 203.5C 357.2 198.5 356.9 191.6 356.5 188C 356 182.9 356.1 181.9 357 183.3C 357.7 184.3 358.4 189.3 358.6 194.3zM 362.6 195.7C 363.1 201.7 362.7 203.7 359.7 212.5L 356.3 222.5L 355.7 217.5C 355.3 214.7 354.4 209.1 353.6 205C 352.9 200.9 352.4 197.3 352.7 197C 353.6 196 354.9 199.7 355.5 205.4C 356.7 215.6 357.5 216.2 359.5 208.7C 361.2 202.3 361.2 192.2 359.6 185C 359.1 183.1 359.4 183.3 360.5 185.7C 361.3 187.5 362.2 192 362.6 195.7zM 342.7 199.2C 342.4 200 342.1 199.7 342.1 198.6C 342 197.5 342.3 196.9 342.6 197.3C 342.9 197.6 343 198.5 342.7 199.2zM 345 204.3C 345 204.8 344.6 204.8 344 204.5C 343.5 204.2 343 203.1 343 202.2C 343 200.7 343.2 200.7 344 202C 344.5 202.8 345 203.9 345 204.3zM 148 225C 147.1 227.2 147 227 147.5 223.5C 147.7 221.3 148.1 218.4 148.2 217C 148.3 215.6 148.5 216.3 148.7 218.5C 148.9 220.8 148.6 223.7 148 225zM 362.6 224.2C 362.7 228.2 362.5 230.9 362.2 230.1C 361.8 229 361.6 229 360.8 230.1C 360.1 231.1 360 230.7 360.4 228.8C 361.2 225.4 359.3 224.1 358.4 227.5C 357.7 230.3 356.5 230.8 355.6 228.5C 355.3 227.7 355.6 227.1 356.2 227.3C 356.8 227.4 358.5 225.2 359.9 222.3C 361.3 219.5 362.5 217.1 362.5 217.1C 362.6 217 362.6 220.3 362.6 224.2zM 135.1 285C 134.3 287.1 134.1 286.4 134.1 281.4C 134 278.1 134.3 275 134.8 274.6C 135.9 273.4 136.2 282.3 135.1 285zM 152.5 302.5C 152.5 308.3 152.5 313 152.4 313C 151.4 313 146 304.1 146 302.5C 146 300.7 151.2 292 152.3 292C 152.4 292 152.5 296.7 152.5 302.5zM 335.3 407.4C 343.8 421.7 347.1 429.3 351.6 446.1C 358.8 472.7 360.9 483 359.2 483C 357.9 483 357 480.5 357 477.2C 357 474.3 352.3 454.1 348.3 439.5C 345.8 430.5 336.7 410.9 331.2 402.8C 327.2 396.8 326.8 396 327.7 396C 328.2 396 331.6 401.1 335.3 407.4zM 152.4 408.7C 147.5 421.8 145.3 429.9 141.1 451C 140 456.2 139.1 459.6 139.1 458.5C 139 456 143.7 429.1 144.6 426.5C 145.1 425.4 145 424.9 144.3 425.3C 143.8 425.6 142.5 428.7 141.5 432.2C 137.4 446.7 133.3 457.3 129.2 464L 127.1 467.4L 127.7 463.5C 128.8 456 135.8 436.4 139.9 428.9C 142.2 424.8 146.3 417.1 149 411.7C 151.8 406.4 154.2 402 154.5 402C 154.7 402 153.8 405 152.4 408.7zM 317 415.2C 314 436.2 307.6 456 304 455.2C 303.4 455.1 303.2 455.4 303.5 456.1C 304.3 457.3 299.3 463 297.4 463C 296.7 463 295.8 463.5 295.4 464.2C 294.9 464.9 295.1 465 296 464.5C 296.8 464 297.1 464.1 296.6 464.8C 296.2 465.4 295.4 465.7 294.7 465.4C 294 465.2 292.7 466.3 291.7 468C 290.7 469.6 289.5 471 288.9 471C 288.4 471 287.5 472.1 287 473.5C 286.5 474.9 285.4 476 284.6 476C 283.8 476 282.9 476.8 282.6 477.8C 281.9 479.9 264.5 497 263 497C 261.7 497 264 491.3 270.7 477.6C 273.7 471.6 275.8 466.5 275.4 466.1C 275 465.8 274.5 466 274.3 466.7C 274.1 467.3 271.8 469.6 269.2 471.7C 266.7 473.8 265 474.8 265.5 474C 266.2 472.8 266.1 472.7 264.9 473.7C 263.3 475 257.3 476.1 252.6 476C 251.1 476 249.1 476.5 248.4 477.1C 247.6 477.7 247 477.8 247 477.3C 247 476.3 246.3 476.1 241.3 475.7C 239.6 475.6 238.4 475.1 238.7 474.6C 239 474.2 238.3 474.1 237.2 474.4C 236 474.8 234.9 474.6 234.4 473.9C 233.9 473.1 234.1 472.9 235.1 473.5C 235.9 474 236.2 473.9 235.7 473.5C 234.8 472.4 230 472.2 230.6 473.2C 230.9 473.6 230.4 473.7 229.6 473.4C 228.7 473.1 228 472.3 228 471.7C 228 471.1 227.7 470.9 227.4 471.3C 225.8 472.9 213.5 456.2 214.1 453.3C 214.2 452.9 214 451.7 213.5 450.7C 212.4 448.2 212.9 448.1 218.5 449.6C 227.7 452.1 242.9 450.1 252.9 445.1C 254.9 444.1 259.2 442.7 262.5 442C 269.8 440.5 278.4 437.3 282.5 434.5C 290.9 428.8 304.5 418.1 311.8 411.3C 315 408.5 317.6 406.3 317.8 406.5C 318 406.7 317.6 410.6 317 415.2zM 179.6 437C 179.7 437.6 179.8 438.1 180 438.2C 180.3 438.7 180.7 443 180.3 443C 180.1 443 179.1 441.6 178.1 439.9C 176.1 436.6 176.3 432.9 178.4 435C 179 435.6 179.6 436.5 179.6 437zM 360.5 441.3C 365.5 444.5 375.4 450.6 382.5 454.9C 389.7 459.2 401.6 466.4 409 471C 423.7 480 430.8 484.3 435.5 487C 447.9 494 476.8 511.9 487.8 519.2C 502.6 529.1 509.3 534.7 508.3 536.3C 508 536.9 508.2 537 508.9 536.6C 512.8 534.1 509.6 548.8 501.8 569.5C 499 576.6 495.8 585.3 494.7 588.7C 493.5 592.2 492.1 595 491.7 595C 491.3 595 489.5 593.4 487.7 591.4C 483.7 586.8 464.5 570.7 452 561.4C 420.7 538.2 417.7 536.2 395.8 525.3C 385.3 520 371.4 511.1 369 508C 368.7 507.7 366 505.7 363 503.7C 360 501.7 356.4 499.1 355 497.9L 352.5 495.9L 355.5 497.4C 357.2 498.3 362.6 501.9 367.5 505.5C 384.7 518 392.5 522.8 401.3 526.3C 406.1 528.3 412.6 531.6 415.8 533.7C 436.3 547.5 441.9 551.5 453.7 560.5C 465 569.2 482.3 583.5 488.2 589.2C 490.1 591.1 492.5 591.7 491.5 590C 491.2 589.5 492 586.2 493.4 582.8C 495 578.8 495.6 576.2 495 575.6C 494.5 575.1 493.7 575 493.3 575.4C 492.9 575.8 493.1 576.5 493.8 576.9C 494.8 577.5 494.5 578.1 492.6 579.3C 490.9 580.5 490.3 581.6 490.7 582.8C 491 583.7 491 584.2 490.5 583.8C 490.1 583.4 488.9 583.5 487.8 584.1C 486 585.1 486 585 487 583C 487.7 581.7 487.8 581 487.2 581.4C 486.6 581.7 485.9 581.1 485.5 580C 485.1 578.9 484.5 578.2 484 578.5C 483.5 578.8 482.9 578.4 482.7 577.8C 482.4 577.1 482.1 577.3 482.1 578.4C 482 580.3 482 580.3 479.9 578.4C 478.5 577.2 478 575.8 478.3 574C 478.8 571.7 478.7 571.6 477.4 573.5C 476.6 574.5 476 574.8 476 574.2C 476 573.5 475.5 573 474.9 573C 474.4 573 474.2 573.6 474.6 574.2C 475 574.9 474.1 574.4 472.6 573C 471.2 571.7 470.1 570.1 470.4 569.4C 470.7 568.7 469 567.5 466.4 566.5C 463.9 565.6 462.1 564.5 462.4 564.2C 462.7 563.9 462.2 563.1 461.2 562.3C 460.3 561.5 460.1 561.1 460.7 561.5C 461.6 561.9 461.8 561.6 461.3 560.5C 460.9 559.3 460.5 559.2 460 560C 459 561.7 456.7 560.2 457.4 558.3C 457.9 557 455.9 553.9 454.5 554C 452.6 554.1 452 553.9 452.1 553.2C 452.2 552.8 452.2 551.6 452.1 550.5C 451.9 548.5 451.9 548.5 450.5 550.4C 449.6 551.5 449 551.8 449 551.1C 449 550.3 448.3 550.1 447 550.5C 445.5 551 445.2 550.7 445.5 549.2C 445.7 547.8 445.3 547.3 443.7 547.4C 442.5 547.5 440.9 547.2 440.3 546.7C 439.6 546.2 439 546.1 439 546.5C 439 547 438.2 546.3 437.1 545.2C 436.1 544 434.9 543.4 434.5 543.8C 434 544.2 434 543.9 434.4 543.2C 434.8 542.5 434.5 542 433.6 542C 432.8 542 431.2 540.6 430 539C 428.7 537.1 427 536 425.5 536C 424.2 536 422.4 535.3 421.6 534.4C 420.7 533.6 419.5 533.2 418.9 533.6C 418.2 534 417.9 533.9 418.2 533.4C 418.5 532.9 417.8 531.6 416.7 530.6C 414.7 528.7 414.7 528.7 415.4 530.6C 415.9 532 415.3 531.7 412.8 529.5C 405.3 522.6 403 520 403 518.1C 403 517 402.6 515.8 402 515.5C 401.5 515.2 401 514 401 512.9C 401 511.8 400 509.3 398.7 507.2C 395.1 501.5 389.6 490.9 387.7 486.3C 386.8 484 383.4 478.5 380.3 474.1C 377.1 469.8 371.9 462.7 368.7 458.3C 362.4 449.6 352.3 438.2 354 441.7C 354.5 442.9 358.9 450 363.8 457.4C 378.9 480.9 380.8 484.2 378.2 482.6C 377.6 482.2 376.4 483.1 375.5 484.7C 374.6 486.2 374.1 486.8 374.3 486C 374.5 485.2 375 483.4 375.4 482L 376.1 479.5L 374.5 482C 373.1 484.2 373 484.2 373.5 482.4C 373.9 481 373.5 480 372.5 479.6C 371.7 479.3 371 479.2 371 479.4C 371 479.7 370.7 480.6 370.3 481.6C 369.9 482.8 370 483.1 370.9 482.6C 371.9 482 371.9 482.2 370.9 483.8C 369.6 485.9 367.5 485.8 368.6 483.7C 368.9 483 368.5 483.3 367.7 484.2C 364.5 488.2 362.9 485.7 363.7 477.9C 364.5 469.3 364.4 468.9 362.3 469.7C 361 470.2 360.8 469.9 361.3 468.1C 361.7 466.5 361.5 466 360.6 466.3C 359.7 466.7 358.8 464.8 357.7 460.7C 355 450.1 351.2 437.1 350.4 435.9C 349.4 434.3 350.3 434.7 360.5 441.3zM 364.5 487.9C 363.9 488.4 362 486.9 362 485.9C 362 485.4 362.6 485.5 363.4 486.2C 364.2 486.9 364.6 487.7 364.5 487.9zM 364 493.5C 362.7 495.1 364.3 496.5 366.2 495.4C 366.8 495 367 495.1 366.7 495.7C 366 496.8 368.3 499.4 369.1 498.5C 369.4 498.3 370.1 499.5 370.8 501.2C 371.9 504.2 371.9 504.2 370 502.5C 368.9 501.5 368 501 368 501.5C 368 501.9 367.3 501.7 366.5 501C 365.7 500.3 365.3 499.4 365.6 498.9C 365.9 498.4 364.9 496.9 363.3 495.5C 361 493.5 360.8 492.9 362 492.1C 363.9 490.8 365.4 491.8 364 493.5zM 362.6 497.5C 364.3 499.1 364 499.3 361.6 498.4C 360.7 498.1 360 497.4 360 496.9C 360 495.6 360.9 495.8 362.6 497.5zM 85.9 532.2C 86.4 531.3 87 531.8 87.9 533.6C 88.7 535.5 88.8 537.8 88.1 541.9C 87.5 545 86.9 553.1 86.5 560C 86.2 566.9 85.7 574.9 85.4 577.8C 85 581.4 85.2 583.5 86.1 584.8C 86.8 585.7 87.1 586.2 86.6 585.8C 85.3 584.7 81.7 588.7 82.3 590.4C 82.6 591.3 82.5 592.2 82 592.5C 81.4 592.9 81 592.6 81 591.9C 81 591.1 80.7 590.9 80 591.6C 78.9 592.7 67.9 618 66 623.7C 64.3 629.1 63 628.3 63.5 622.2C 63.7 619.6 64.1 613.2 64.5 608C 65.2 596.7 67.6 579.1 69.5 570C 72.1 557.7 74.2 549.5 75.1 547.8C 75.6 546.8 76 545.3 76 544.5C 76 543.6 76.7 541.8 77.6 540.4C 78.5 539.1 79 537.7 78.7 537.3C 78.3 537 79.2 535.9 80.5 534.8C 82 533.7 82.7 532.3 82.3 531.7C 81.9 531 82.4 531.1 83.4 531.9C 84.7 533 85.3 533.1 85.9 532.2zM 131.1 535.7C 132.4 537.3 132.3 537.4 130.8 536.1C 129.8 535.4 129 534.6 129 534.4C 129 533.6 129.8 534.1 131.1 535.7zM 187.8 543.7C 186.4 545.5 185.9 544.9 186.7 542.1C 187.1 540.5 187.5 540.2 188.1 541.1C 188.5 541.8 188.4 543 187.8 543.7zM 189.5 547C 189.2 547.5 189.4 548.1 190 548.5C 190.6 548.9 190.8 549.5 190.6 549.9C 190.3 550.3 190.7 553.3 191.5 556.6C 193.2 563.7 193.4 566.3 192 565.5C 191.5 565.2 191 563.8 191 562.4C 191 561 190.6 559.1 190.1 558.2C 188.6 555.3 187.6 544.6 188.9 545.4C 189.5 545.8 189.8 546.5 189.5 547zM 451.4 554.6C 451.7 555.4 451.6 555.8 451 555.5C 450.4 555.2 450 554.5 450 553.9C 450 552.5 450.7 552.8 451.4 554.6zM 196.7 572.2C 196.4 573 196.1 572.7 196.1 571.6C 196 570.5 196.3 569.9 196.6 570.3C 196.9 570.6 197 571.5 196.7 572.2zM 197.7 580.2C 197.4 580.9 197.2 580.4 197.2 579C 197.2 577.6 197.4 577.1 197.7 577.7C 197.9 578.4 197.9 579.6 197.7 580.2zM 39.8 583.1C 39.5 585.1 39.8 586 40.7 586C 42 586 42.3 585.2 42.3 581.7C 42.3 580.1 43.4 580.2 43.5 581.8C 43.6 582.2 44.1 583.5 44.8 584.8C 46.2 587.2 45.5 598.6 43.9 599.6C 43.4 599.9 43.2 600.5 43.5 601C 44.3 602.3 41.9 623.4 40.8 624.8C 40.2 625.5 40 626.3 40.3 626.7C 40.6 627 40.2 628.6 39.4 630.2C 38.6 631.8 38.2 633.4 38.4 633.9C 38.7 634.4 38.3 635.3 37.5 636C 36.2 637.1 36 636.7 36 633.6C 36 631.6 35.5999 630 35 630C 34.4 630 34 623.3 34 611.7C 34.0999 597.3 34.4 593.1 35.5 591.6C 36.2999 590.5 37 588.6 37 587.3C 37 586 37.5 585 38 585C 38.5999 585 39 584.1 39 582.9C 39 581.8 38.5999 581.1 38.2 581.4C 37.7 581.7 37.2999 581.3 37.2999 580.6C 37.2999 579.8 38 579.4 38.7999 579.7C 39.7 580.1 40 581.3 39.8 583.1zM 198.7 588.7C 198.4 589.7 198.2 589.1 198.2 587.5C 198.2 585.8 198.4 585.1 198.7 585.7C 198.9 586.4 198.9 587.8 198.7 588.7zM 90.6 589.5C 90.5 590.3 90.1 591.2 89.8 591.6C 89.3 592 89.4 590 89.9 588.2C 90.2 587.3 90.8 588.3 90.6 589.5zM 85.4 591.6C 85.7 592.4 85.6 592.8 85 592.5C 84.4 592.2 84 591.5 84 590.9C 84 589.5 84.7 589.8 85.4 591.6zM 199.7 594.2C 199.4 594.9 199.2 594.4 199.2 593C 199.2 591.6 199.4 591.1 199.7 591.7C 199.9 592.4 199.9 593.6 199.7 594.2zM 93.3 593.7C 93 594.4 92.7 595 92.5 595C 92.3 595 92 594.4 91.7 593.7C 91.4 592.9 91.8 592.3 92.5 592.3C 93.2 592.3 93.6 592.9 93.3 593.7zM 97.7 599.1C 97.9 600.2 97.6 600.9 97.1 600.6C 96.6 600.3 96.4 600.8 96.7 601.9C 97 602.9 96.6 604.1 95.9 604.5C 95.1 605.1 94.9 604.9 95.5 604C 96.1 603 95.9 602.8 94.7 603.3C 93.8 603.6 92.8 603.5 92.4 602.9C 92 602.2 91.4 602.2 90.6 602.9C 89.8 603.5 88.9 603.5 88 602.9C 86.7 602 86.7 602 88 602.2C 88.9 602.4 89.5 602 89.5 601.5C 89.5 600.9 89.1 600.6 88.5 600.8C 88 601 87.9 600.8 88.3 600.3C 88.8 599.9 89.7 599.5 90.3 599.5C 91 599.4 91.4 598.9 91.3 598.3C 91.2 597.7 91.9 597.4 92.9 597.7C 93.9 598 95.1 597.7 95.5 597C 96.4 595.6 97.3 596.4 97.7 599.1zM 78.1 602.3C 77.1 603.2 77 603.1 77.6 601.7C 77.9 600.7 78.5 600.2 78.8 600.5C 79.1 600.8 78.8 601.6 78.1 602.3zM 84 600.6C 84 601.4 82.1 601.9 81.6 601.2C 81.3 600.7 81.7 600.3 82.5 600.3C 83.3 600.3 84 600.5 84 600.6zM 81.2 606.2C 80.5 606.9 80 608.2 80 609.2C 80 611.4 78.4 611.6 77.6 609.5C 77.3 608.7 77.5 608 78.1 608C 78.7 608 78.8 607.5 78.4 606.8C 78 606.2 78.1 606 78.8 606.4C 79.4 606.7 80.1 606.6 80.5 606C 80.8 605.5 81.4 605 81.8 605C 82.1 605 81.9 605.5 81.2 606.2zM 90.7 610.7C 90.3 611 90.6 612 91.3 612.9C 92.3 614.3 92.3 614.3 90.9 613.3C 89.7 612.3 89.1 612.3 88 613.3C 87.2 613.9 87.4 613.5 88.4 612.2C 89.5 611 90.5 610 90.8 610C 91.1 610 91 610.3 90.7 610.7zM 203.7 625.2C 203.4 625.9 203.2 625.4 203.2 624C 203.2 622.6 203.4 622.1 203.7 622.7C 203.9 623.4 203.9 624.6 203.7 625.2zM 204.7 634.7C 204.5 636.3 204.3 635 204.3 632C 204.3 629 204.5 627.7 204.7 629.2C 204.9 630.8 204.9 633.2 204.7 634.7zM 454.7 632.2C 454.4 633 454.1 632.7 454.1 631.6C 454 630.5 454.3 629.9 454.6 630.3C 454.9 630.6 455 631.5 454.7 632.2zM 34.7 637.2C 34.4 637.9 34.2 637.4 34.2 636C 34.2 634.6 34.4 634.1 34.7 634.7C 34.9 635.4 34.9 636.6 34.7 637.2zM 494.7 636.2C 494.4 637 494.1 636.7 494.1 635.6C 494 634.5 494.3 633.9 494.6 634.3C 494.9 634.6 495 635.5 494.7 636.2zM 205.7 643.7C 205.4 644.7 205.2 643.9 205.2 642C 205.2 640.1 205.4 639.3 205.7 640.2C 205.9 641.2 205.9 642.8 205.7 643.7zM 202.7 649.2C 202.4 650 202.1 649.7 202.1 648.6C 202 647.5 202.3 646.9 202.6 647.3C 202.9 647.6 203 648.5 202.7 649.2zM 203.7 673.2C 203.5 674.5 203.3 673.7 203.3 671.5C 203.2 669.3 203.4 668.3 203.7 669.2C 203.9 670.2 203.9 672 203.7 673.2zM 374.2 674.2C 373.3 675.1 373 674.9 373 673C 373 671.1 373.3 670.9 374.2 671.8C 375.1 672.7 375.1 673.3 374.2 674.2zM 139 678.5C 139.7 679.4 139.8 680 139.2 680C 138.7 680 138 679.3 137.6 678.5C 137.3 677.7 137.2 677 137.4 677C 137.6 677 138.3 677.7 139 678.5z"/>
<path style="stroke:none; fill:#f2f2f2" d="M 215 454C 215 454.5 215.5 455 216 455C 216.6 455 217 454.5 217 454C 217 453.4 216.6 453 216 453C 215.5 453 215 453.4 215 454z"/>
<path style="stroke:none; fill:#f2f2f2" d="M 300.5 456.9C 300.2 457.4 300.3 458.1 300.8 458.4C 301.3 458.7 301.7 458.3 301.7 457.5C 301.7 455.8 301.4 455.6 300.5 456.9z"/>
<path style="stroke:none; fill:#f2f2f2" d="M 365.5 475C 365.2 475.6 365.6 475.7 366.4 475.4C 368.2 474.7 368.5 474 367.1 474C 366.5 474 365.8 474.4 365.5 475z"/>
<path style="stroke:none; fill:#f2f2f2" d="M 366.5 479C 366.8 479.5 367.3 480 367.6 480C 367.8 480 368 479.5 368 479C 368 478.4 367.5 478 366.9 478C 366.4 478 366.2 478.4 366.5 479z"/>
<path style="stroke:none; fill:#f2f2f2" d="M 434 539.9C 434 540.4 434.7 541.1 435.6 541.4C 437.7 542.2 438 542.2 438 540.9C 438 540.4 437.6 540.2 437 540.5C 436.5 540.8 436 540.6 436 540.1C 436 539.5 435.6 539 435 539C 434.5 539 434 539.4 434 539.9z"/>
<path style="stroke:none; fill:#f2f2f2" d="M 453 547.8C 453 548.3 453.6 549.5 454.4 550.5C 455.7 552.3 455.8 552.3 455.3 549.7C 454.8 547.3 453 545.8 453 547.8z"/>
<path style="stroke:none; fill:#f2f2f2" d="M 500.2 561.2C 499.1 564.1 497.9 567.3 497.5 568.2C 497.1 569.2 497.2 570 497.8 570C 498.9 570 500.3 566.6 501.9 560.6C 503.4 554.8 502.6 555.2 500.2 561.2z"/>
<path style="stroke:none; fill:#f2f2f2" d="M 472.5 571C 472.2 571.5 472.4 572 472.9 572C 473.5 572 474 571.5 474 571C 474 570.4 473.8 570 473.6 570C 473.3 570 472.8 570.4 472.5 571z"/>
<path style="stroke:none; fill:#f2f2f2" d="M 495.3 573.2C 495.1 575.4 496.6 575.6 497.4 573.4C 498.2 571.3 498.2 571.3 496.7 571.3C 496 571.3 495.3 572.2 495.3 573.2z"/>
<path style="stroke:none; fill:#f2f2f2" d="M 35.1 618.6C 35.1 619.7 35.4 620 35.7 619.2C 36 618.5 35.9 617.6 35.6 617.3C 35.3 616.9 35 617.5 35.1 618.6z"/>
<path style="stroke:none; fill:#f2f2f2" d="M 91 600.5C 91 601.5 93.9 602.9 94.4 602.2C 94.7 601.6 94.1 601 93 600.7C 91.9 600.4 91 600.3 91 600.5z"/>
<path style="stroke:none; fill:#f2f2f2" d="M 282 105C 284.8 107.4 284.6 107.4 285.4 105.4C 285.8 104.2 285.6 103.9 284.5 104.4C 283.7 104.7 283 104.5 283 104C 283 103.4 282.3 103 281.3 103C 280 103 280.2 103.4 282 105z"/>
<path style="stroke:none; fill:#f2f2f2" d="M 300 111C 303 112.7 305.9 114.5 306.4 115C 307 115.6 307.8 116 308.4 116C 310 116 305.9 112.2 302.7 110.7C 296.3 107.8 294.6 108 300 111z"/>
<path style="stroke:none; fill:#f2f2f2" d="M 287.7 110.1C 288.4 110.8 289.2 111.1 289.5 110.8C 289.8 110.5 289.3 109.9 288.3 109.6C 286.9 109 286.8 109.1 287.7 110.1z"/>
<path style="stroke:none; fill:#f2f2f2" d="M 204.4 115.6C 202.5 117.1 202.5 117.1 204.5 116.2C 205.6 115.7 207.2 115 208 114.7C 209.3 114.2 209.3 114.1 207.9 114.1C 207.1 114 205.5 114.7 204.4 115.6z"/>
<path style="stroke:none; fill:#f2f2f2" d="M 316.4 122.5C 318.9 125.6 321 128.7 321 129.3C 321 129.8 321.3 130 321.6 129.7C 322.5 128.9 316.1 119.5 313.6 118C 312.6 117.4 313.8 119.4 316.4 122.5z"/>
<path style="stroke:none; fill:#f2f2f2" d="M 195.6 125.5C 195.3 126.4 195 127.9 195.1 128.8C 195.1 129.7 195.6 129.2 196.1 127.6C 197 124.4 196.7 122.8 195.6 125.5z"/>
<path style="stroke:none; fill:#f2f2f2" d="M 270.8 142.7C 272 142.9 273.8 142.9 274.8 142.7C 275.7 142.4 274.7 142.2 272.5 142.3C 270.3 142.3 269.5 142.5 270.8 142.7z"/>
<path style="stroke:none; fill:#f2f2f2" d="M 299.8 143.5C 300.4 144.6 301.9 146.4 303.2 147.5C 305.4 149.4 305.4 149.4 303 146.5C 299 141.7 298.7 141.4 299.8 143.5z"/>
<path style="stroke:none; fill:#f2f2f2" d="M 271 144.9C 271 145.4 273.1 146.2 275.8 146.5C 284.2 147.6 297 150.1 299.5 151C 300.9 151.5 302 151.7 302 151.5C 302 151.1 293.2 146.9 289.5 145.5C 286.2 144.4 271 143.9 271 144.9z"/>
<path style="stroke:none; fill:#f2f2f2" d="M 139.5 196.1C 139.1 196.7 139 197.3 139.3 197.6C 139.5 197.9 140 197.4 140.3 196.5C 141 194.8 140.4 194.5 139.5 196.1z"/>
<path style="stroke:none; fill:#f2f2f2" d="M 188 238.2C 179.8 242.4 179.4 242.7 176.2 249C 174.1 253.3 173.1 256.3 173.5 257.8C 173.9 259.3 173.7 259.9 173 259.5C 172.5 259.2 172 259.4 172 259.9C 172 261.4 173 261.2 176.5 259C 178.2 257.9 180.9 256.3 182.5 255.4C 184.2 254.5 185.7 253.4 186 253C 187.1 251.5 197 248.7 202.9 248.3C 212.2 247.6 222 250.6 222 254.2C 222 254.6 218.5 255 214.2 255C 203.8 255 195.5 256.6 189.7 259.8C 183.5 263.1 181.6 265.3 185.5 264.6L 188.3 264.1L 185.9 266.3C 184.6 267.5 183.2 268.5 182.8 268.5C 182.3 268.5 182 268.9 182.1 269.4C 182.1 269.9 181.6 270.7 180.8 271.1C 178.9 272.4 182.2 272.3 185.5 271C 187.2 270.3 187.9 270.3 187.5 271C 187.2 271.6 187.6 272 188.4 272C 189.2 272 190.4 272.8 190.9 273.7C 191.5 274.7 192 275 192 274.3C 192 273.6 192.7 273.3 193.5 273.7C 194.5 274 195 273.8 194.8 272.9C 194.6 272.2 195.3 271.4 196.4 271.2C 197.4 271 198 271.2 197.7 271.7C 197.4 272.2 198.7 272.5 200.6 272.5C 203 272.4 204 272.8 204.1 273.9C 204.1 275 204.3 275.1 204.7 274.2C 204.9 273.6 206.9 273 208.9 273C 212.9 273 216.2 270.4 217.5 266.2C 218.1 264 218.2 264 221.1 265.7C 224.1 267.5 225.1 271.5 222.8 272.2C 222.1 272.5 223.7 273 226.5 273.3C 229.7 273.8 231.7 273.6 232.4 272.9C 233.2 272 233.1 271.9 232.2 272.4C 230.1 273.6 225 272.1 225.7 270.4C 226.1 269.3 226.6 269.2 227.6 270.1C 228.7 271 229 270.9 229 270C 229 269 229.4 269 230.8 270C 231.7 270.7 230.3 269.2 227.5 266.7C 224.8 264.1 221.9 262.1 221.2 262C 220.5 262 220.1 261.6 220.5 261C 220.8 260.5 223.3 261.4 226.1 263C 228.8 264.7 231.4 266 231.9 266C 233.3 266 237 270.1 237 271.6C 237 272.5 234.8 275.2 232 277.8C 227 282.5 225.5 284.9 228.8 283.1C 229.7 282.6 233.1 281.3 236.3 280.2C 241.9 278.2 242 278.2 242 280.1C 242 281.1 242.5 282 243 282C 246.1 282 247.5 266.6 244.9 261.4C 244 259.8 242.9 257.6 242.3 256.5C 241.7 255.4 240.4 252.4 239.6 249.9C 238.4 246.5 237.1 244.9 234.7 243.7C 229 241 213.8 238 205.8 238C 198.7 238 198 237.8 198 236C 198 234.9 197.7 234 197.2 234C 196.8 234 192.6 235.9 188 238.2zM 195 260C 195 260.5 194.5 261 193.9 261C 193.4 261 193.2 260.5 193.5 260C 193.8 259.4 194.3 259 194.6 259C 194.8 259 195 259.4 195 260zM 201 269.5C 201.6 269.8 202 270.5 202 271C 202 271.6 199.9 271 197.4 269.8L 192.9 267.5L 195.7 265.3L 198.5 263L 199.3 266C 199.7 267.6 200.5 269.2 201 269.5zM 204 265C 204 265.5 203.6 266 203 266C 202.5 266 202 265.5 202 265C 202 264.4 202.5 264 203 264C 203.6 264 204 264.4 204 265zM 215.8 265.2C 215.2 267 213 267.3 213 265.6C 213 264.7 213.7 264 214.6 264C 215.5 264 216 264.5 215.8 265.2zM 211 266C 211 266.5 210.6 267 210 267C 209.5 267 209 266.5 209 266C 209 265.4 209.5 265 210 265C 210.6 265 211 265.4 211 266z"/>
<path style="stroke:none; fill:#f2f2f2" d="M 288 248.2C 285.5 248.7 283 249.1 282.3 249.2C 281.6 249.3 281.3 249.7 281.6 250.2C 281.9 250.6 281.7 251 281.1 251C 280.5 251 279.7 252.5 279.2 254.2C 277.8 259.2 279.1 259.7 291.1 258.8C 305.5 257.7 321.9 259.5 323.7 262.3C 324.1 262.9 323.8 263 322.9 262.5C 322.1 262 321.8 262.1 322.3 262.6C 322.7 263 325.4 264.4 328.3 265.6C 332.1 267.2 333.7 267.5 334.2 266.7C 334.6 266 334.2 264.9 333.3 264.2C 331.7 263.1 331.7 263 333.3 263C 334.8 263 334.9 262.7 333.9 260.7C 332.3 257.7 324.8 250 323.9 250.5C 323.6 250.8 322.7 250.3 322 249.5C 321.3 248.7 320.3 248 319.8 248C 319.2 248 319.3 248.7 320.1 249.6C 321.3 251 320.9 251.1 316.4 250.5C 313.7 250.2 309.5 249.5 307 249C 300.1 247.6 293 247.3 288 248.2z"/>
<path style="stroke:none; fill:#f2f2f2" d="M 273.9 262.3C 270.6 264.5 269 267.7 267.7 274.8C 267.3 276.6 267.4 277.9 267.8 277.6C 268.2 277.4 269.6 278.7 271 280.6C 273.5 284 275 284.9 275 282.9C 275 282.4 275.4 282.1 275.9 282.5C 276.4 282.8 276.2 281.7 275.4 280C 272.9 275.1 273.8 273.7 280.1 272.5C 283.1 271.9 286.3 271 287.1 270.5C 288.3 269.7 288.3 269.9 287.1 271.3C 286.4 272.2 285.2 273 284.6 273C 283.3 273 278.4 277.8 279.1 278.3C 280.1 279.1 291 280.6 291 279.9C 291 279.5 290.1 278.8 289 278.5C 286.4 277.7 286.5 275.5 289.2 273.6C 292.3 271.4 293 271.6 293 274.8C 293 276.4 293.6 278.3 294.3 279.2C 295.4 280.7 307.4 283.4 306.5 282C 306.2 281.6 306.9 280.5 308 279.5C 309.1 278.5 310 276.9 310 275.8C 310 273.5 311.2 273.5 313.4 275.9C 315.1 277.7 315.1 277.9 313 280C 311.8 281.2 311.1 282.4 311.4 282.8C 311.7 283.1 312 283 312 282.5C 312 282.1 313 282.5 314.2 283.6C 315.4 284.6 316.1 285 315.7 284.4C 314.8 282.9 320.8 283.1 323.6 284.7C 324.9 285.4 326.1 285.5 327.1 284.9C 328 284.4 328.1 284 327.3 284C 326.6 284 325.6 283.1 325.1 282.1C 324.2 280.4 324.3 280.3 326.3 280.7C 328.5 281.2 328.5 281.2 326.5 279.6L 324.5 278L 326.5 278.6C 330.2 279.7 318.6 269.7 313.4 267.3C 307.7 264.7 299.8 263 293.4 263C 290.8 263 289 262.5 289 261.9C 289 261.2 288 261 286.4 261.4C 285 261.8 284 261.7 284.3 261.3C 284.6 260.9 283.1 260.4 281 260.3C 278.4 260.1 276.1 260.8 273.9 262.3zM 313.7 269.4C 319.2 272.2 318.3 273 312.5 270.5C 309.4 269.1 305.7 268 304.2 267.9C 301.8 267.9 301.8 267.8 303.5 267.1C 305.7 266.2 309.1 266.9 313.7 269.4zM 299.3 267.7C 298.6 267.9 297.4 267.9 296.8 267.7C 296.1 267.4 296.6 267.2 298 267.2C 299.4 267.2 299.9 267.4 299.3 267.7zM 298 273.4C 298 273.7 297.6 274.2 297 274.5C 296.5 274.8 296 274.6 296 274.1C 296 273.5 296.5 273 297 273C 297.6 273 298 273.2 298 273.4zM 307 275C 307 276.3 305 276.3 303 275C 301.8 274.2 302.1 274 304.3 274C 305.8 274 307 274.4 307 275zM 286 277C 286 277.5 285.8 278 285.6 278C 285.3 278 284.8 277.5 284.5 277C 284.2 276.4 284.4 276 284.9 276C 285.5 276 286 276.4 286 277z"/>
<path style="stroke:none; fill:#f2f2f2" d="M 162 295.9C 162 299.7 162.5 305.2 163.1 308C 164.1 312.6 164.3 312.9 165.5 311.3C 166.3 310.3 166.4 309.3 165.9 309.2C 165.4 309 165 307.1 165 304.9C 165 302.8 164.7 301 164.3 301C 163.8 301 163.6 298.5 163.7 295.5C 163.7 292.5 163.4 289.8 162.9 289.4C 162.4 289.1 162 292 162 295.9z"/>
<path style="stroke:none; fill:#f2f2f2" d="M 235.1 302.6C 233.8 305.1 231.3 308.6 229.5 310.5C 221.5 318.4 223.2 330.8 232.5 332.6C 236.6 333.3 236.8 334.2 233.7 336.7C 232.4 337.7 231.5 339.2 231.7 340C 232.1 341.3 232 341.3 231.1 340C 230.3 338.8 229.8 338.8 227.6 339.9C 226.2 340.7 225.3 341.7 225.6 342.2C 225.9 342.6 226.6 342.7 227.2 342.4C 227.8 342 228 342.2 227.7 342.8C 226.8 344.1 227.9 347 229.2 347C 229.8 347 230 346.3 229.6 345.5C 229.1 344.2 229.4 344.1 231.3 345.1C 232.5 345.7 233.2 345.9 232.8 345.5C 231.7 344.3 234.3 342.3 236.5 342.8C 238.3 343.1 238.6 342.7 238.4 340.1C 238.3 338.4 238.6 337 239.1 337C 241.2 337 239.8 333 237.3 331.6C 235.4 330.6 235.1 330.1 236.2 330C 237.1 330 238.5 330.7 239.3 331.5C 240.1 332.3 241 332.7 241.3 332.4C 241.6 332.1 243.3 332.6 245.1 333.5C 249 335.6 255.2 335 258.1 332.4C 259.2 331.5 261.5 330.5 263.3 330.3C 271.2 329.6 273.1 327.9 268.6 325.9C 266.3 324.8 265.9 324.9 257.6 329.7C 253.4 332.2 249.4 331.3 245.1 327C 242.9 324.8 241 323 240.8 323C 240.6 323 239 322.6 237.2 322.1C 235.4 321.5 234.2 321.5 234.5 322C 234.8 322.5 234.1 323.1 233 323.5C 231.9 323.9 231.3 324.6 231.6 325.2C 232 325.8 231.8 326 231.2 325.6C 230.6 325.3 229.9 325.4 229.5 326C 228.6 327.5 227 326.2 227 323.9C 227 322.6 227.4 322.1 228.3 322.6C 229.3 323.2 229.3 323 228.3 321.9C 227.6 321.2 227 319.6 227 318.5C 227 316.2 230.8 312 232.8 312C 233.5 312 234.9 310.6 235.9 308.9C 236.9 307.2 237.9 306.3 238.1 306.9C 238.3 307.5 238.6 305.7 238.7 303C 238.8 300.2 238.6 298 238.1 298C 237.7 298 236.3 300.1 235.1 302.6zM 232.4 327.8C 232.7 328.3 232.3 328.7 231.5 328.7C 230.7 328.7 230.3 328.3 230.6 327.8C 230.9 327.4 231.3 327 231.5 327C 231.7 327 232.1 327.4 232.4 327.8z"/>
<path style="stroke:none; fill:#f2f2f2" d="M 345.8 308.5C 345.2 311.5 345.5 312.8 346.6 311.8C 346.9 311.4 347 309.9 346.8 308.3L 346.5 305.5L 345.8 308.5z"/>
<path style="stroke:none; fill:#f2f2f2" d="M 270 310.1C 270 311.6 273.6 318 274.5 318C 275 318 271.3 310.2 270.4 309.1C 270.2 308.9 270 309.3 270 310.1z"/>
<path style="stroke:none; fill:#f2f2f2" d="M 267 311.9C 267 312.5 267.4 313.2 268 313.5C 268.6 313.8 268.7 313.4 268.4 312.6C 267.7 310.8 267 310.5 267 311.9z"/>
<path style="stroke:none; fill:#f2f2f2" d="M 344.7 323.2C 343.4 325.5 342.6 326 342.1 325.1C 341.3 323.8 340.3 326.9 339.4 333.5C 339.1 336.5 339.1 336.4 340.3 333.1C 341 331.2 342.5 329.3 343.6 328.9C 344.6 328.5 345.1 328.1 344.6 328.1C 344.1 328 344.4 327.3 345.1 326.4C 346.3 325 347.6 320 346.8 320C 346.6 320 345.7 321.4 344.7 323.2z"/>
<path style="stroke:none; fill:#f2f2f2" d="M 230.8 322.7C 231.5 323 232.4 322.9 232.7 322.6C 233.1 322.3 232.5 322 231.4 322.1C 230.3 322.1 230 322.4 230.8 322.7z"/>
<path style="stroke:none; fill:#f2f2f2" d="M 276.1 328.6C 276 329.7 271.1 332.1 265.5 333.8C 263.9 334.3 262.6 335.1 262.8 335.6C 263.2 337 267.2 336.6 271.1 334.8C 275.3 332.8 277.4 330.6 276.7 328.8C 276.4 328.1 276.1 328 276.1 328.6z"/>
<path style="stroke:none; fill:#f2f2f2" d="M 261.7 338C 262.6 338.9 262.6 339.7 261.9 340.6C 261.3 341.4 261.3 342 261.9 342.4C 263.3 343.3 265.7 342.1 265.7 340.5C 265.7 339.3 265.4 339.3 264.1 340.3C 263.2 341 262.9 341.1 263.3 340.4C 263.7 339.7 263.2 338.6 262.2 337.9C 260.8 336.8 260.7 336.8 261.7 338z"/>
<path style="stroke:none; fill:#f2f2f2" d="M 203.2 346C 200.9 348.2 198.6 350.9 198 351.9C 196.5 354.9 196.7 359 198.5 359C 199.3 359 200 358.4 200 357.6C 200 356.8 200.5 356 201.1 355.8C 201.6 355.6 202.2 354.8 202.3 354C 202.6 352.2 207 344.8 208.3 343.9C 208.8 343.5 208.8 343 208.3 342.7C 207.7 342.3 205.5 343.9 203.2 346z"/>
<path style="stroke:none; fill:#f2f2f2" d="M 336.5 347C 336.1 349.3 336 351.4 336.3 351.6C 336.6 351.9 337.1 350.3 337.5 348C 337.9 345.7 338 343.6 337.7 343.4C 337.4 343.1 336.9 344.7 336.5 347z"/>
<path style="stroke:none; fill:#f2f2f2" d="M 224 345.1C 224 345.6 224.5 345.8 225 345.5C 225.6 345.2 226 344.7 226 344.4C 226 344.2 225.6 344 225 344C 224.5 344 224 344.5 224 345.1z"/>
<path style="stroke:none; fill:#f2f2f2" d="M 235.7 344.6C 236.4 344.9 236.6 345.9 236.3 346.8C 235.9 348.2 236 348.2 236.8 347C 238 345.4 237.5 344 235.7 344.1C 234.8 344.1 234.8 344.3 235.7 344.6z"/>
<path style="stroke:none; fill:#f2f2f2" d="M 262.5 347C 262.2 347.6 262.6 347.7 263.4 347.4C 265.2 346.7 265.5 346 264.1 346C 263.5 346 262.8 346.4 262.5 347z"/>
<path style="stroke:none; fill:#f2f2f2" d="M 342 352.5C 340 354 337.8 354.8 336.8 354.4C 335.5 354 335 354.4 335 356C 335 358 335 358 338.8 356.1C 340.8 355.1 343.4 353.3 344.4 352.1C 346.8 349.4 346.3 349.5 342 352.5z"/>
<path style="stroke:none; fill:#f2f2f2" d="M 159 357C 159 358.1 159.4 359 159.9 359C 160.4 359 160.6 358.1 160.3 357C 160 355.9 159.6 355 159.4 355C 159.2 355 159 355.9 159 357z"/>
<path style="stroke:none; fill:#f2f2f2" d="M 232.5 356.2C 230.3 356.7 225.7 358.1 222.3 359.2C 218.8 360.3 214.8 361 213.3 360.9C 209.6 360.5 208.1 361.5 208.7 364C 209.1 365.5 209.6 365.8 210.5 365C 212.4 363.4 216.6 364.8 221.5 368.6C 223.9 370.4 227.8 372.9 230 374L 234.2 376.1L 233.5 373.8C 233.1 372.5 231.9 370.4 230.9 369.1C 228.1 365.6 228.5 364 231.8 364.5C 233.3 364.8 237.2 365.4 240.4 366C 243.7 366.5 250.3 367 255.2 367C 263.2 367 271 368.7 271 370.4C 271 371.3 267.2 374.9 266.8 374.5C 266.6 374.3 265.4 375 264 376.1L 261.5 378L 264.9 376.9C 266.7 376.2 270.2 374.7 272.7 373.3C 275.2 372 279.2 370.7 281.7 370.3C 287.4 369.5 286.7 367.7 280.4 366.9C 277.3 366.5 272.2 364.5 266.7 361.5L 257.9 356.8L 252 358.3C 248.7 359.1 246 359.4 246 358.9C 246 357.7 240.5 355 238.3 355.1C 237.3 355.2 234.7 355.6 232.5 356.2z"/>
<path style="stroke:none; fill:#f2f2f2" d="M 334 360.5C 334 361.3 334 362.2 334 362.5C 334 362.8 334.3 362.9 334.7 362.7C 335.7 362.4 335.8 359 334.8 359C 334.4 359 334 359.7 334 360.5z"/>
<path style="stroke:none; fill:#f2f2f2" d="M 333 366C 333 366.5 333.5 367 334 367C 334.6 367 335 366.5 335 366C 335 365.4 334.6 365 334 365C 333.5 365 333 365.4 333 366z"/>
<path style="stroke:none; fill:#f2f2f2" d="M 332.7 369C 332.4 369.8 331.9 371.8 331.6 373.5L 331.1 376.5L 332.6 373.1C 333.4 371.3 333.9 369.3 333.7 368.6C 333.4 367.9 333 368.1 332.7 369z"/>
<path style="stroke:none; fill:#f2f2f2" d="M 163 373.9C 163 374.5 163.4 375.2 164 375.5C 164.6 375.8 164.7 375.4 164.4 374.6C 163.7 372.8 163 372.5 163 373.9z"/>
<path style="stroke:none; fill:#f2f2f2" d="M 244.3 378.7C 245.2 378.9 246.8 378.9 247.8 378.7C 248.7 378.4 247.9 378.2 246 378.2C 244.1 378.2 243.3 378.4 244.3 378.7z"/>
<path style="stroke:none; fill:#f2f2f2" d="M 190.7 384.1C 191.4 384.8 192.2 385.1 192.5 384.8C 192.8 384.5 192.3 383.9 191.3 383.6C 189.9 383 189.8 383.1 190.7 384.1z"/>
<path style="stroke:none; fill:#f2f2f2" d="M 241.5 385C 241.2 385.6 241.1 386.9 241.5 387.9C 241.9 389.2 241.5 390.2 240.3 390.9C 238.7 391.8 238.7 391.9 240.8 392C 242.1 392 242.9 391.6 242.6 391.1C 242.3 390.6 242.6 390 243.4 389.7C 244.1 389.4 245 388 245.2 386.6C 245.6 384.6 245.3 384 243.9 384C 242.9 384 241.8 384.5 241.5 385zM 244 388.1C 244 388.7 243.6 388.8 243 388.5C 242.5 388.2 242 387.4 242 386.9C 242 386.3 242.5 386.2 243 386.5C 243.6 386.8 244 387.6 244 388.1z"/>
<path style="stroke:none; fill:#f2f2f2" d="M 321.6 390.5C 322.4 394.2 323 395 323 392.4C 323 391.4 322.5 389.8 322 389C 321.2 387.9 321.1 388.3 321.6 390.5z"/>
<path style="stroke:none; fill:#f2f2f2" d="M 318.3 395.2C 318.6 396.3 318.4 396.7 317.8 396.4C 317.2 396 316.9 396.3 317.1 396.9C 317.9 399.1 319.3 398.6 320 395.9C 320.6 394 320.4 393.3 319.3 393.3C 318.4 393.3 318 394 318.3 395.2z"/>
<path style="stroke:none; fill:#f2f2f2" d="M 288.7 412.1C 289.4 412.8 290.2 413.1 290.5 412.8C 290.8 412.5 290.3 411.9 289.3 411.6C 287.9 411 287.8 411.1 288.7 412.1z"/>
<path style="stroke:none; fill:#f2f2f2" d="M 289.2 414.9C 288.2 415.5 288.2 415.9 289.4 416.9C 290.6 417.9 290.9 417.8 290.7 416.1C 290.6 414.9 290.6 414 290.5 414C 290.5 414 289.9 414.4 289.2 414.9z"/>
<path style="stroke:none; fill:#f2f2f2" d="M 122.3 445.4C 120 446.7 115.3 449.4 111.8 451.3C 100.8 457.3 87 466.1 95 462C 98.5 460.2 127.4 443.8 127.9 443.4C 129.3 442.1 125.9 443.4 122.3 445.4z"/>
<path style="stroke:none; fill:#f2f2f2" d="M 90 464C 89.1 464.6 89 465 89.7 465C 90.3 465 91.2 464.5 91.5 464C 92.3 462.8 91.9 462.8 90 464z"/>
<path style="stroke:none; fill:#f2f2f2" d="M 80 469.1C 75.9 471.3 69.1 475.3 65 478C 60.9 480.6 49.9 487.4 40.5 493C 22.4 504 16.1 508 17.2 508C 18.1 508 27.5 502.5 50.5 488.5C 62.1 481.4 75.1 473.5 79.4 470.8C 87.1 466.1 88.8 465 87.9 465C 87.7 465 84.1 466.9 80 469.1z"/>
<path style="stroke:none; fill:#f2f2f2" d="M 13.4 509.6C 11.6 511 11.6 511.1 13.8 510C 15 509.4 16 508.7 16 508.5C 16 507.7 15.5 507.9 13.4 509.6z"/>
<path style="stroke:none; fill:#f2f2f2" d="M 2.7 514.7C 1.2 515 0 515.8 0 516.6C 0 517.9 0.4 517.8 3 516.5C 4.7 515.6 6 514.7 6 514.5C 6 514.2 5.9 514.1 5.8 514.1C 5.6 514.2 4.3 514.5 2.7 514.7z"/>
<path style="stroke:none; fill:#f2f2f2" d="M 110.9 569.9C 111.6 570.4 112.7 571.4 113.2 572.1C 114 573.2 114.1 573.1 113.6 571.8C 113.3 570.6 113.8 570 115.8 569.7C 117.5 569.5 116.8 569.2 114 569.2C 111.1 569.1 110 569.3 110.9 569.9z"/>
<path style="stroke:none; fill:#f2f2f2" d="M 117 578C 117 578.5 118.1 579 119.4 579C 120.8 579 122.2 578.5 122.5 578C 122.9 577.4 121.8 577 120.1 577C 118.4 577 117 577.4 117 578z"/>
<path style="stroke:none; fill:#f2f2f2" d="M 118 582C 118 582.5 118.4 583 118.9 583C 119.5 583 120.2 582.5 120.5 582C 120.8 581.4 120.4 581 119.6 581C 118.7 581 118 581.4 118 582z"/>
<path style="stroke:none; fill:#f2f2f2" d="M 104.5 584.9C 104.2 585.4 104.3 586.1 104.8 586.4C 105.3 586.7 105.7 586.3 105.7 585.5C 105.7 583.8 105.4 583.6 104.5 584.9z"/>
<path style="stroke:none; fill:#f2f2f2" d="M 102.3 587.5C 102.3 588.3 102.7 588.7 103.2 588.4C 103.7 588.1 103.8 587.4 103.5 586.9C 102.6 585.6 102.3 585.8 102.3 587.5z"/>
<path style="stroke:none; fill:#f2f2f2" d="M 104.5 588.9C 104.2 589.4 104.3 590.1 104.8 590.4C 105.3 590.7 105.7 590.3 105.7 589.5C 105.7 587.8 105.4 587.6 104.5 588.9z"/>
<path style="stroke:none; fill:#f2f2f2" d="M 101.9 597.2C 101.4 599 101.3 601 101.8 600.6C 102.5 599.8 103 597 102.4 597C 102.2 597 102 597.1 101.9 597.2z"/>
<path style="stroke:none; fill:#f2f2f2" d="M 117.1 622.7C 116.1 625.3 116.1 625.4 117.5 623.6C 118.3 622.5 119 621.3 119 620.8C 119 619.3 118.3 620 117.1 622.7z"/>
<path style="stroke:none; fill:#f2f2f2" d="M 105.7 636.5C 104.9 638.3 106.8 639.6 108.2 638.2C 109.3 637.1 108.5 635 107 635C 106.6 635 106 635.7 105.7 636.5z"/>
<path style="stroke:none; fill:#f2f2f2" d="M 112.6 643.2C 112.9 643.7 113.6 643.8 114.1 643.5C 115.4 642.6 115.2 642.3 113.5 642.3C 112.7 642.3 112.3 642.7 112.6 643.2z"/>
<path style="stroke:none; fill:#f2f2f2" d="M 111.3 646.1C 111.1 648.4 111.6 648.6 112.3 646.5C 112.7 645.7 112.6 644.9 112.2 644.6C 111.8 644.3 111.3 645 111.3 646.1z"/>
<path style="stroke:none; fill:#f2f2f2" d="M 122.3 655.7C 123.2 655.9 124.8 655.9 125.8 655.7C 126.7 655.4 125.9 655.2 124 655.2C 122.1 655.2 121.3 655.4 122.3 655.7z"/>
<path style="stroke:none; fill:#f2f2f2" d="M 165.1 677.6C 165.1 678.7 165.4 679 165.7 678.2C 166 677.5 165.9 676.6 165.6 676.3C 165.3 675.9 165 676.5 165.1 677.6z"/>
<path style="stroke:none; fill:#f2f2f2" d="M 355.9 676.5C 355.8 676.8 355.7 677.3 355.6 677.7C 355.5 678.2 355.1 679.2 354.6 680C 353.9 681.2 354 681.3 355 680.3C 356.3 679.1 357.3 676 356.4 676C 356.2 676 355.9 676.2 355.9 676.5z"/>
<path style="stroke:none; fill:#f2f2f2" d="M 167.3 678.5C 167.3 679.3 167.7 680 168.2 680C 168.6 680 169 679.6 169 679.1C 169 678.5 168.6 677.9 168.2 677.6C 167.7 677.3 167.3 677.7 167.3 678.5z"/>
<path style="stroke:none; fill:#f2f2f2" d="M 179.3 678.6C 179.7 679.2 179 680.6 177.7 681.6C 176.5 682.6 176.1 682.8 176.8 682C 178.8 679.7 178.2 678.5 176 680.5C 173.2 683 174.2 683.8 180.2 683.8C 184.2 683.9 185.1 683.6 183.8 682.9C 181.6 681.7 181.5 680 183.5 680C 184.3 680 185 679.5 185 679C 185 677.7 183.3 677.7 182.5 679C 182 679.8 181.3 679.7 180.2 678.8C 179.3 678.1 178.9 678 179.3 678.6zM 181.4 681.6C 181.7 682.4 181.6 682.8 181 682.5C 180.4 682.2 180 681.5 180 680.9C 180 679.5 180.7 679.8 181.4 681.6z"/>
<path style="stroke:none; fill:#f2f2f2" d="M 187.9 679.2C 187.4 681 187.3 683 187.8 682.6C 188.5 681.8 189 679 188.4 679C 188.2 679 188 679.1 187.9 679.2z"/>
<path style="stroke:none; fill:#f2f2f2" d="M 351.3 681.9C 350.3 683.5 350.4 683.8 351.8 683.6C 352.7 683.4 353.4 683 353.3 682.6C 352.7 680.3 352.4 680.2 351.3 681.9z"/>
</g>
</g>
</svg>